<svg width="410" height="244" viewBox="0 0 410 244" fill="none" xmlns="http://www.w3.org/2000/svg">
<path d="M404.879 175.154C429.047 85.9408 365.496 -4.74164 260.081 30.2976C168.326 60.7629 93.1743 -31.64 18.9468 77.5062C-29.7256 149.053 19.9135 269.32 116.081 239.274C240.662 200.374 374.869 285.895 404.879 175.154Z" fill="#E5EEFF"/>
<path d="M97.839 51.1952C97.9231 51.3211 97.9651 51.4051 98.0491 51.531C98.3434 51.9086 98.6796 52.2863 98.9318 52.7059C99.184 53.0416 99.3941 53.4193 99.6043 53.797C99.6884 53.9229 99.7304 54.0487 99.8145 54.1327C99.9826 54.3844 100.235 54.5523 100.571 54.5103C100.655 54.5103 100.781 54.5103 100.865 54.5103C100.907 54.6362 100.907 54.7202 100.907 54.7621C101.075 54.7202 101.159 54.6782 101.37 54.6362C101.496 54.5103 101.454 54.3425 101.412 54.1327C101.37 53.5032 101.328 52.8738 101.286 52.2443C101.286 51.9506 101.244 51.6568 101.244 51.3211C101.286 51.447 101.37 51.6149 101.37 51.7408C101.412 52.1184 101.706 52.3283 101.916 52.622C101.958 52.7059 102 52.7898 102.042 52.8738C102.126 53.0416 102.21 53.2514 102.294 53.4193C102.504 53.755 102.673 54.0487 102.883 54.3425V54.3844C102.883 55.0978 103.429 55.4755 103.765 55.9791C103.807 56.021 103.807 56.063 103.849 56.063C103.976 56.1469 104.102 56.2728 104.228 56.3148C104.48 56.3987 104.396 56.1049 104.522 55.9791C104.606 56.1049 104.69 56.2308 104.774 56.3987C104.816 56.3567 104.816 56.3148 104.816 56.3148C104.774 55.979 104.9 55.6014 104.774 55.2237C104.69 54.93 104.732 54.5943 104.732 54.3005C104.732 53.5032 104.522 52.7059 104.27 51.9506C104.144 51.6149 104.102 51.2372 103.976 50.9015C103.892 50.6497 103.765 50.3979 103.639 50.1462C103.639 50.1042 103.597 50.1042 103.597 50.0622C103.639 49.6006 103.387 49.223 103.303 48.8033C103.177 48.3418 102.967 47.8802 102.757 47.4186C102.378 46.5793 102.042 45.6981 101.664 44.8588C101.496 44.4811 101.328 44.1035 101.117 43.7258C100.613 42.8026 100.151 41.8794 99.6463 40.9143C99.3521 40.4107 99.0579 39.9072 98.7637 39.3616C98.6796 39.1938 98.6376 39.0259 98.5535 38.9C98.4695 38.6902 98.4274 38.4804 98.2173 38.3126C98.1332 38.2706 98.1332 38.0608 98.0912 37.9768C97.923 37.5992 97.7129 37.2215 97.5027 36.8438C97.1245 36.1724 96.7882 35.4591 96.3259 34.7876C96.1157 34.4519 95.9476 34.0743 95.7374 33.7805C95.5273 33.4868 95.3591 33.1091 95.149 32.8154C94.7287 32.1859 94.2663 31.5984 93.6779 31.0949C93.5098 30.927 93.3837 30.7172 93.2155 30.5074C93.0054 30.2556 92.7952 30.0038 92.6271 29.7101C92.1647 28.9967 91.6604 28.3673 91.0299 27.8218C90.9038 27.6959 90.8197 27.528 90.6937 27.3602C90.6516 27.3182 90.6096 27.2762 90.5676 27.2762C90.4835 27.2343 90.3994 27.1504 90.3154 27.1084C89.6008 26.3111 88.7182 25.7656 87.7094 25.3879C87.3311 25.262 86.8268 25.262 86.4064 25.304C85.5658 25.3459 84.7252 25.4718 83.9266 25.5557C82.9178 25.6397 81.9091 25.7236 80.9003 25.8075C80.6061 25.8495 80.2699 25.8915 79.9756 25.9334C79.5133 25.9334 79.0509 25.8915 78.5886 25.8915C78.5045 25.8915 78.4625 25.8915 78.3784 25.8495C77.7059 25.8075 77.0755 25.7656 76.403 25.6397C75.9827 25.5558 75.6044 25.3879 75.2261 25.22C74.9319 25.0942 74.6377 25.0102 74.3434 24.8843C74.0492 24.7585 73.755 24.6745 73.5028 24.5486C73.0825 24.2969 72.7042 24.0451 72.368 23.7513C72.3259 23.7094 72.2839 23.5835 72.2839 23.4996C72.3259 22.996 72.368 22.5344 72.41 22.0308C72.41 21.6112 72.5781 21.2335 72.8303 20.8978C72.9564 20.688 73.0405 20.4362 73.1665 20.2264C73.2506 20.0166 73.3347 19.8068 73.5448 19.6809C73.6289 19.6389 73.6709 19.4711 73.713 19.3452C73.8811 19.0095 74.0072 18.6738 74.1753 18.3381C74.2594 18.2122 74.3434 18.0863 74.4695 18.0024C75.0159 17.5408 75.5623 17.0372 76.0667 16.5756C76.1087 16.5337 76.1508 16.3658 76.1508 16.2819C76.1508 16.198 76.0247 16.0721 75.9827 16.0721C75.6464 16.0301 75.3102 15.9881 75.0159 16.156C74.9319 16.198 74.7637 16.2399 74.6797 16.2819C74.3855 16.4078 74.1333 16.5337 73.8391 16.6596C73.713 16.7015 73.5448 16.7435 73.4187 16.6596C72.8723 16.4078 72.2419 16.2819 71.6534 16.2399C70.9809 16.198 70.3084 16.2819 69.762 16.7015C69.6779 16.7435 69.5518 16.7854 69.4678 16.8274C69.1315 16.9953 68.7533 17.1631 68.417 17.3729C68.3329 17.4149 68.2489 17.5408 68.1648 17.6247C67.6184 18.0863 67.03 18.5059 66.4836 18.9675C66.3154 19.0934 66.2314 19.2613 66.1053 19.3872C65.8531 19.6809 65.4748 19.8488 65.0965 19.8907C64.1298 20.0166 63.2471 19.7229 62.4906 19.2613C61.4818 18.6738 60.5571 17.9604 59.5904 17.289C58.9179 16.8274 58.4556 16.2399 57.9512 15.6105C57.7831 15.4007 57.6149 15.2328 57.4888 15.023C57.1526 14.5194 56.8163 13.9739 56.5221 13.4704C56.438 13.3445 56.354 13.2605 56.2699 13.1766C56.2279 13.1347 56.1859 13.0507 56.1438 12.9668C55.9337 12.5891 55.7655 12.2115 55.5554 11.8338C55.4713 11.624 55.3873 11.3722 55.3032 11.1624C55.1771 10.9106 55.009 10.7008 54.8829 10.449C54.6727 9.98741 54.5046 9.52582 54.2524 9.06422C53.9582 8.5187 53.6219 7.97318 52.9915 7.67944C52.5712 7.46962 52.1088 7.3857 51.6465 7.25981C50.8899 7.00803 50.0913 7.00803 49.3347 6.84018C48.0738 6.54643 46.8129 6.63036 45.5519 6.63036C45.0475 6.63036 44.5432 6.67232 44.0808 6.63036C42.946 6.5884 41.8111 6.71429 40.7183 6.88214C39.4574 7.09195 38.1964 7.25981 36.9355 7.46962C36.305 7.59551 35.6745 7.76337 35.0441 7.88926C34.6237 7.97318 34.2455 7.97318 33.8251 8.01514C33.573 8.05711 33.3628 8.09907 33.1106 8.14103C32.9005 8.183 32.7323 8.22496 32.5222 8.26692C32.1019 8.35085 31.6816 8.39281 31.2612 8.47674C30.7148 8.56067 30.1684 8.68656 29.664 8.81245C28.7394 9.02226 27.8567 9.19011 26.932 9.39993C26.0914 9.60975 25.2507 9.86152 24.4521 10.1133C23.3173 10.449 22.1404 10.8267 21.0056 11.2043C20.5012 11.3722 20.0388 11.4981 19.5765 11.6659C19.3243 11.7499 19.1142 11.9177 18.904 12.0016C18.6518 12.1275 18.3996 12.2534 18.1054 12.3793C17.8952 12.4632 17.6431 12.5472 17.517 12.6731C17.2227 12.9248 16.8445 13.0088 16.5082 13.1347C16.3401 13.1766 16.214 13.2605 16.0879 13.3445C15.8777 13.4704 15.6676 13.6382 15.4574 13.7641C15.2893 13.848 15.1632 13.9739 15.0371 14.0578C15.2052 14.5194 15.6676 14.4775 16.0038 14.6453C16.0459 14.6453 16.0879 14.6453 16.1299 14.6453C16.6343 14.5614 17.1387 14.4775 17.6431 14.4355C17.7271 14.4355 17.8112 14.4775 17.8952 14.5194C17.9793 14.6034 18.0634 14.6873 18.1474 14.7712C18.2735 14.981 18.4417 15.065 18.6518 15.065C19.2403 15.023 19.7867 15.023 20.3751 14.981C20.7534 14.9391 20.8795 15.023 21.0896 15.3587C21.1317 15.4007 21.1737 15.4846 21.2578 15.4846C22.0143 15.5266 22.7289 15.5266 23.4854 15.5685C23.6115 15.5685 23.7376 15.5266 23.9057 15.5266C23.9898 15.6944 24.0739 15.8623 24.1579 15.9881C24.242 16.156 24.4101 16.2399 24.6203 16.198C24.9986 16.156 25.3768 16.156 25.7131 16.156C26.0073 16.198 26.3015 16.198 26.5537 16.156C26.8479 16.114 26.89 16.156 27.0161 16.4497C27.0581 16.5337 27.1422 16.5756 27.1842 16.5756C27.8147 16.5756 28.4451 16.6176 29.0756 16.5756C29.58 16.5337 30.0844 16.5756 30.5887 16.6596C31.2612 16.7435 31.8917 16.7435 32.5642 16.6176C32.9425 16.5337 33.3628 16.6596 33.7411 16.7015C34.0353 16.7015 34.3716 16.7854 34.6658 16.7435C35.2542 16.6596 35.8006 16.7854 36.3891 16.8274C36.6833 16.8274 37.0195 16.7854 37.3138 16.7854C37.4399 16.7854 37.5659 16.8274 37.692 16.8274C38.1544 16.9113 38.5747 16.9953 39.037 17.0792C39.3313 17.1212 39.5835 17.0792 39.7936 17.331C40.0458 17.6247 40.382 17.7086 40.7603 17.7086C40.9705 17.7086 41.2227 17.6667 41.3067 17.9604C41.3067 18.0024 41.4328 18.0443 41.5169 18.0863C41.5589 18.0443 41.601 18.0024 41.685 17.9604C41.8952 18.1702 42.1053 18.2961 42.3996 18.2542C42.5677 18.2542 42.6517 18.3381 42.6517 18.5059C42.6517 18.6738 42.7358 18.7577 42.9039 18.7997C43.1982 18.8416 43.3663 19.1354 43.6185 19.2613C43.6605 19.3032 43.7446 19.3452 43.8286 19.3872C43.9127 19.7229 44.1649 20.0166 44.4171 20.2684C44.5432 20.3943 44.6272 20.4782 44.7533 20.6041C44.9214 20.8139 45.1316 21.0237 45.2997 21.2335C45.4258 21.3594 45.5099 21.4853 45.636 21.6532C45.678 21.7371 45.7621 21.7791 45.8461 21.821C46.0143 21.863 46.1404 21.9889 46.1824 22.1567C46.3925 22.6603 46.7708 22.996 47.1491 23.3737C47.3593 23.5415 47.4854 23.7513 47.6535 23.9612C47.8216 24.171 47.9897 24.3808 48.284 24.4647C48.4521 24.5486 48.5782 24.7165 48.7463 24.8424C48.9985 25.0942 49.2507 25.3459 49.5029 25.5557C49.629 25.6816 49.7551 25.8495 49.9232 25.9754C50.0493 26.1013 50.2174 26.1852 50.3855 26.3111C50.4276 26.3531 50.4696 26.395 50.5536 26.437C50.8899 26.7307 51.1421 27.1084 51.6044 27.2762C51.6885 27.2762 51.7305 27.3602 51.7726 27.4021C52.2769 27.8218 52.7393 28.2834 53.2437 28.703C53.5379 28.9548 53.8321 29.1226 54.1263 29.3744C54.1684 29.3744 54.1684 29.4164 54.2104 29.4164C54.4626 29.7101 54.7568 29.9619 55.009 30.2556C55.093 30.3396 55.1771 30.3815 55.2612 30.4654C55.4713 30.6753 55.7235 30.8431 55.8496 31.0949C56.1018 31.6404 56.6062 31.7243 57.1106 31.8502C57.1526 31.8502 57.2366 31.8922 57.2787 31.8922C57.1526 32.1859 57.0265 32.4797 56.9004 32.8154C56.8584 32.9413 56.8584 33.1091 56.8163 33.235C56.6902 33.6966 56.6062 34.1582 56.4801 34.6198C56.438 34.7457 56.4381 34.8296 56.396 34.9555C56.354 35.3332 56.312 35.7108 56.2279 36.0885C56.1438 36.4242 56.1438 36.8019 55.9337 37.0537C55.6815 37.3894 55.5554 37.767 55.3032 38.1027C55.093 38.3545 54.967 38.7322 54.7988 39.0259C54.6307 39.3197 54.3785 39.6134 54.2104 39.9072C54.0002 40.2009 53.8321 40.5366 53.6219 40.8723C53.2857 41.3759 52.9915 41.8794 52.6552 42.383C52.6132 42.4669 52.6132 42.5508 52.5712 42.5928C52.4451 42.9285 52.2769 43.2222 52.1508 43.5579C52.0668 43.8097 52.1508 43.9776 52.319 44.1874C52.4451 44.3133 52.5291 44.4811 52.6552 44.607C52.7393 44.691 52.8654 44.7329 52.9915 44.8168C53.1596 44.9427 53.3698 45.0686 53.5379 45.1945C53.5799 45.2365 53.6219 45.2365 53.664 45.2784C54.1684 45.4883 54.6307 45.6561 55.1351 45.8659C55.2191 45.9079 55.3452 45.9079 55.4293 45.9498C55.6395 46.0338 55.8076 46.1597 56.0177 46.2436C56.312 46.3695 56.5641 46.4954 56.8584 46.5793C57.4048 46.7472 57.9091 46.957 58.4556 47.0829C59.1281 47.2507 59.7585 47.1248 60.3049 46.7891C60.5992 46.5793 60.7253 46.2856 60.8934 45.9498C61.1456 45.3624 61.4398 44.7749 61.692 44.1874C61.734 44.0615 61.776 43.9356 61.8601 43.7678C61.9862 43.3901 62.1543 43.0124 62.2804 42.6348C62.4485 42.2151 62.6587 41.8375 62.8268 41.4178C62.9949 41.0402 63.121 40.6625 63.2471 40.2848C63.2892 40.1589 63.3732 40.033 63.4573 39.9491C63.9196 39.4875 64.382 39.0679 64.8443 38.6063C65.4748 37.9768 66.1053 37.3894 66.7778 36.7599C66.8198 37.0117 66.9459 37.0117 67.1561 37.0117C67.2401 37.0117 67.3242 37.0117 67.3662 37.0117C67.7025 37.0117 68.0387 36.9697 68.417 37.0537C68.7953 37.1376 69.2156 37.0537 69.6359 37.0537C69.72 37.0537 69.8461 37.0537 69.9301 37.0537C70.2244 37.0537 70.5606 37.0956 70.8548 37.1376C71.107 37.1795 71.3592 37.2215 71.6114 37.2635C71.7795 37.3054 71.9476 37.3054 72.0737 37.3054C72.8303 37.3474 73.5869 37.1376 74.3434 36.9697C74.4695 36.9278 74.5956 36.9278 74.7217 36.9278C74.7217 36.9697 74.7637 36.9697 74.7637 37.0117C74.6377 37.1795 74.5536 37.3054 74.4275 37.4733C74.3014 37.5992 74.1753 37.7251 74.0492 37.851C73.8811 38.1027 73.9651 38.3965 74.2594 38.3545C74.6377 38.3126 74.9739 38.1867 75.3522 38.1027C75.7305 38.0608 76.1508 38.0188 76.5291 38.0188C76.6972 38.0188 76.8653 38.1867 77.0334 38.2286C77.2856 38.2706 77.5799 38.2286 77.832 38.2286C78.6727 38.2286 79.5553 38.1867 80.396 38.1867C80.522 38.1867 80.6481 38.2706 80.7322 38.3126C80.9003 38.3965 81.0685 38.5643 81.3206 38.4804C81.4047 38.4384 81.5308 38.4804 81.6569 38.4804C81.8671 38.4804 82.0352 38.4804 82.2453 38.5224C82.4135 38.5643 82.6236 38.6483 82.7917 38.7322C82.9178 38.7741 83.0439 38.8581 83.17 38.8161C83.3802 38.8161 83.5903 38.8161 83.8005 38.942C84.1367 39.1518 84.473 39.3197 84.8513 39.4875C84.8933 39.5295 84.9774 39.5714 84.9774 39.6554C85.0194 39.8652 85.1875 39.9911 85.3557 40.075C85.6499 40.1589 85.9021 40.2429 86.1963 40.3268C86.2803 40.3688 86.3644 40.4107 86.3644 40.4527C86.6166 40.9143 86.9108 41.3339 87.3732 41.5857C87.6254 41.7535 87.8775 41.8794 88.0877 42.0892C88.3399 42.2991 88.508 42.5928 88.7182 42.8026C88.8443 42.9285 88.9283 43.0544 89.0544 43.1383C89.3907 43.4321 89.6849 43.7678 89.9371 44.1035C90.1472 44.3972 90.4835 44.649 90.7357 44.9427C90.8618 45.0686 90.9458 45.1526 91.0299 45.2784C91.2401 45.5302 91.4922 45.824 91.7024 46.0757C91.7024 46.1177 91.7444 46.1177 91.7444 46.1597C92.1648 46.2856 92.2908 46.7052 92.543 46.9989C92.6691 47.1248 92.7532 47.2507 92.8372 47.3346C92.9633 47.5025 93.0894 47.6703 93.2155 47.7962C93.5098 48.1739 93.846 48.5096 94.1823 48.8453C94.2663 48.9292 94.3924 48.9712 94.4765 49.0132C94.8968 49.0551 95.0649 49.3069 95.233 49.6426C95.2751 49.6846 95.3171 49.7685 95.3591 49.7685C95.6954 49.8524 95.8215 50.1042 95.9896 50.356C96.1998 50.6917 96.452 50.9435 96.9143 50.9015C97.2505 50.8595 97.2505 50.9015 97.3346 51.2372C97.3766 51.3211 97.4187 51.4051 97.4607 51.531C97.5448 51.489 97.6288 51.4051 97.7129 51.3631L97.7549 51.3211C97.797 51.2372 97.797 51.1952 97.839 51.1952Z" fill="#96BAF8"/>
<path d="M230.617 85.5632C191.108 93.1166 161.686 88.081 161.686 78.4294C161.686 59.1264 191.15 57.7416 200.354 70.8761C200.775 35.2074 255.416 35.2074 264.662 55.3497C272.228 45.4884 311.738 50.7338 311.738 75.9117C311.738 85.1436 282.736 88.9202 230.617 85.5632Z" fill="white"/>
<path d="M107.044 213.97C107.044 194.667 77.5803 193.283 68.3755 206.417C67.9972 174.399 23.9062 171.126 8.22852 185.393C13.6085 199.241 21.5104 211.662 31.64 221.524C33.7416 221.398 35.9272 221.272 38.1128 221.146C77.6224 228.658 107.044 223.622 107.044 213.97Z" fill="white"/>
<path d="M317.034 50.6076C316.781 50.146 316.907 49.6005 317.454 49.2228C318.21 48.6773 319.051 48.5514 319.934 48.4675C320.774 48.3836 321.657 48.2577 322.498 48.1737C322.708 47.0407 323.254 46.5791 324.725 46.3693C326.659 46.1175 328.634 45.8658 330.61 46.1175C331.366 46.2015 331.744 45.7818 332.039 45.2363C332.585 44.1872 332.753 43.0123 332.753 41.8373C332.795 40.0748 332.837 38.2704 332.627 36.5499C332.459 35.291 331.997 33.9902 331.492 32.8152C329.895 28.8707 327.583 25.3038 325.398 21.695C324.767 20.6459 324.473 19.345 324.137 18.1281C323.801 16.9112 323.632 15.6103 323.801 14.3514C323.843 14.1836 323.717 13.9318 323.632 13.7639C323.044 12.3372 322.54 10.8685 322.834 9.27386C322.876 8.93816 322.96 8.60245 323.128 8.35067C323.464 7.84712 323.506 7.34356 323.464 6.75607C323.296 4.49006 324.347 2.76957 326.07 1.42675C326.743 0.92319 327.457 0.503558 328.256 0C329.265 1.51067 330.231 2.93742 331.114 4.36417C331.913 5.66503 332.795 6.96589 333.005 8.47656C333.174 9.73546 333.846 10.7006 334.35 11.7917C335.485 14.2255 336.284 16.7433 336.746 19.429C336.788 19.6388 336.872 19.8486 336.998 19.9745C339.688 22.828 341.622 26.185 343.345 29.668C345.195 33.4447 346.624 37.3892 347.758 41.4177C347.8 41.5016 347.8 41.5855 347.843 41.7534C348.347 41.082 348.767 40.4525 349.188 39.865C350.953 37.3053 352.718 34.7455 354.483 32.2277C354.694 31.934 355.156 31.6822 355.534 31.5983C357.384 31.1367 359.275 30.6331 361.166 30.3394C365.117 29.7519 369.068 29.2483 373.061 28.8287C381.299 27.9894 389.538 27.6537 397.818 27.7796C401.306 27.8216 404.837 28.0734 408.368 28.1993C407.989 29.5421 407.947 29.5421 407.149 29.3742C406.897 29.626 406.728 29.9198 406.476 30.0037C405.972 30.1715 405.467 30.2135 404.921 30.2974C404.501 30.3394 404.165 30.4653 403.786 30.6751C403.072 31.0528 402.231 31.1786 401.475 31.4304C401.264 31.5144 401.096 31.6402 400.886 31.7661C400.592 31.934 400.298 32.1438 400.003 32.1858C398.574 32.4795 397.145 32.7733 395.716 32.9831C394.203 33.1929 392.648 33.3607 391.135 33.5286C391.051 33.5286 390.967 33.5286 390.925 33.5705C390.252 34.5357 389.327 33.9902 388.487 34.0321C388.024 34.0321 387.562 33.9063 387.016 33.8223C387.142 34.0321 387.184 34.2 387.31 34.4518C386.091 34.4098 384.914 34.3259 383.569 34.2839C383.863 34.5357 383.989 34.6616 384.2 34.8294C382.14 34.8294 380.165 34.8294 378.147 34.8294C378.273 34.9553 378.483 35.1232 378.651 35.291C378.651 35.333 378.652 35.375 378.609 35.4169C377.937 35.291 377.306 35.2071 376.634 35.0812C376.718 35.2491 376.844 35.4169 376.97 35.5848C376.886 35.6267 376.844 35.7107 376.802 35.7526C373.229 37.3892 370.203 39.865 367.429 42.5926C364.361 45.572 361.629 48.8451 359.107 52.2442C358.939 52.454 358.897 52.7058 358.771 52.9575C358.56 53.2513 358.35 53.5031 358.098 53.7548C357.888 54.3843 358.182 54.762 358.771 55.0977C362.259 57.2378 365.79 59.252 369.531 60.8886C370.371 61.2663 371.128 61.7698 371.884 62.2314C371.969 62.2734 372.053 62.3153 372.095 62.3153C372.935 62.1475 373.44 62.693 373.986 63.1126C373.986 63.1546 373.986 63.2385 373.986 63.2805C373.692 63.2805 373.356 63.4064 373.103 63.3225C371.464 62.8189 369.867 62.3153 368.27 61.7698C367.933 61.6439 367.639 61.518 367.303 61.6859C367.051 61.7698 366.757 61.6439 366.462 61.6439C366.336 61.6439 366.252 61.6439 366.126 61.6439C366 61.6439 365.874 61.7698 365.79 61.7279C365.075 61.518 364.361 61.8537 363.688 61.8118C363.184 61.7698 362.68 61.6859 362.175 61.6439C361.839 61.602 361.503 61.6439 361.166 61.6439C361.04 61.6439 360.956 61.602 360.83 61.602C360.536 61.56 360.2 61.4341 359.906 61.4761C359.401 61.56 358.939 61.4341 358.603 61.0984C358.14 60.6788 357.678 60.7207 357.131 60.8466C355.87 61.1823 354.61 61.4761 353.391 61.8957C350.533 62.8609 347.716 62.8609 344.816 62.1475C340.193 61.0145 335.653 59.6716 331.198 57.9092C329.391 57.1958 327.92 55.9789 326.407 54.8039C325.524 54.1325 324.809 53.2933 323.927 52.6218C322.456 51.5728 320.858 50.7755 318.967 50.9853C318.757 51.0272 318.547 50.9433 318.336 50.9013C317.958 50.7755 317.538 50.6915 317.034 50.6076Z" fill="#96BAF8"/>
<path d="M106.834 168.104H57.1953V148.675L108.726 79.0581H135.29V144.73H147.311V168.104H135.29V189.589H106.834V168.104ZM106.834 144.73V110.489L82.6243 144.73H106.834Z" fill="#FF9EAE"/>
<path d="M204.263 191.604C198.042 191.604 192.242 190.597 186.862 188.54C181.482 186.484 176.774 183.211 172.781 178.679C168.788 174.147 165.636 168.23 163.366 160.929C161.097 153.627 159.962 144.731 159.962 134.324V131.177C159.962 121.483 161.097 113.217 163.366 106.377C165.636 99.5366 168.788 93.9135 172.781 89.5493C176.774 85.1851 181.482 81.9959 186.862 79.9817C192.242 77.9675 198.042 77.0023 204.263 77.0023C210.483 77.0023 216.284 78.0094 221.664 79.9817C227.044 81.9959 231.709 85.1851 235.744 89.5493C239.737 93.9135 242.89 99.5366 245.159 106.377C247.429 113.217 248.564 121.483 248.564 131.177V134.324C248.564 144.731 247.429 153.627 245.159 160.929C242.89 168.23 239.737 174.147 235.744 178.679C231.751 183.211 227.044 186.484 221.664 188.54C216.284 190.597 210.483 191.604 204.263 191.604ZM204.263 168.23C206.364 168.23 208.382 167.685 210.357 166.636C212.291 165.587 214.014 163.782 215.401 161.18C216.83 158.621 217.965 155.138 218.806 150.774C219.646 146.409 220.067 140.912 220.067 134.282V131.135C220.067 125.344 219.646 120.476 218.806 116.532C217.965 112.587 216.83 109.398 215.401 106.964C213.972 104.53 212.291 102.852 210.357 101.845C208.424 100.837 206.364 100.334 204.263 100.334C202.161 100.334 200.144 100.837 198.168 101.845C196.235 102.852 194.512 104.572 193.124 106.964C191.695 109.398 190.561 112.587 189.72 116.532C188.879 120.476 188.459 125.344 188.459 131.135V134.282C188.459 140.912 188.879 146.409 189.72 150.774C190.561 155.138 191.695 158.621 193.124 161.18C194.554 163.74 196.235 165.587 198.168 166.636C200.102 167.727 202.161 168.23 204.263 168.23Z" fill="#FF9EAE"/>
<path d="M308.459 168.104H258.82V148.675L310.351 79.0581H336.915V144.73H348.936V168.104H336.915V189.589H308.459V168.104ZM308.459 144.73V110.489L284.249 144.73H308.459Z" fill="#FF9EAE"/>
<path d="M45.005 95.7175C41.7686 71.3789 73.5443 72.1342 72.6617 91.731C82.9173 47.6697 120.241 61.5595 123.015 88.6258C123.562 94.081 107.842 98.4032 95.821 94.8363C74.8473 104.152 46.0137 103.397 45.005 95.7175Z" fill="white"/>
<path d="M402.062 184.218C394.959 185.435 388.318 187.659 383.569 190.68C383.569 156.564 324.43 154.298 326.658 186.148C311.19 169.657 281.895 181.616 281.895 199.241C281.895 211.872 297.909 214.012 339.351 208.347C350.027 211.746 366.924 213.55 383.989 213.592C391.47 206.29 397.565 196.723 402.062 184.218Z" fill="white"/>
</svg>
