<svg width="427" height="223" viewBox="0 0 427 223" fill="none" xmlns="http://www.w3.org/2000/svg">
<path d="M418.725 198.327C449.7 161.267 389.6 122.4 277.723 135.677C180.429 147.233 108.351 107.483 24.1278 152.275C-31.1385 181.604 12.5282 232.698 114.445 221.395C246.454 206.731 380.27 244.379 418.725 198.327Z" fill="#E5EEFF"/>
<path d="M74.6448 190.722C63.9277 190.722 54.8918 189.336 47.579 186.605C40.2662 183.831 34.3403 180.176 29.8013 175.554C25.2623 170.932 21.9421 165.553 19.8407 159.335C17.7393 153.158 16.6466 146.645 16.4785 139.796H55.3961C55.6903 145.805 57.5395 150.679 60.9858 154.376C64.4321 158.074 68.971 159.923 74.6028 159.923C81.6214 159.923 86.6227 157.696 89.6907 153.284C92.7587 148.872 94.2717 142.611 94.2717 134.544C94.2717 126.014 92.4225 120.047 88.682 116.686C84.9416 113.324 80.2765 111.643 74.6028 111.643C66.7016 111.643 60.6075 114.711 56.2787 120.804H19.8828V31.3461H126.297V64.4147H58.5482V86.0962C64.8103 81.4742 73.3839 79.1632 84.2691 79.1632C91.708 79.1632 98.5585 80.3397 104.821 82.6087C111.083 84.9197 116.462 88.3652 120.917 92.9873C125.372 97.6093 128.86 103.324 131.298 110.089C133.778 116.854 134.996 124.795 134.996 133.913C134.996 142.569 133.568 150.385 130.752 157.402C127.936 164.419 123.901 170.385 118.69 175.302C113.478 180.218 107.132 183.999 99.6933 186.689C92.2123 189.378 83.8909 190.722 74.6448 190.722Z" fill="#96BAF8"/>
<path d="M215.48 190.722C206.696 190.722 198.5 189.251 190.893 186.352C183.286 183.452 176.646 178.788 171.014 172.402C165.341 166.015 160.928 157.611 157.692 147.274C154.497 136.938 152.9 124.374 152.9 109.626V105.172C152.9 91.4738 154.497 79.7507 157.692 70.0864C160.886 60.4221 165.341 52.4806 171.014 46.2619C176.688 40.0852 183.328 35.5892 190.893 32.7319C198.5 29.9167 206.696 28.488 215.48 28.488C224.263 28.488 232.459 29.9167 240.066 32.7319C247.673 35.5472 254.313 40.0852 259.945 46.2619C265.619 52.4386 270.031 60.3801 273.268 70.0864C276.462 79.7927 278.059 91.4738 278.059 105.172V109.626C278.059 124.374 276.462 136.938 273.268 147.274C270.073 157.653 265.619 166.015 259.945 172.402C254.271 178.83 247.631 183.452 240.066 186.352C232.459 189.251 224.263 190.722 215.48 190.722ZM215.48 157.653C218.464 157.653 221.321 156.897 224.095 155.426C226.869 153.955 229.223 151.35 231.24 147.695C233.257 144.039 234.854 139.123 236.031 132.946C237.208 126.769 237.838 118.996 237.838 109.584V105.13C237.838 96.9362 237.25 90.0452 236.031 84.4567C234.854 78.8683 233.257 74.3723 231.24 70.9268C229.223 67.4812 226.827 65.0862 224.095 63.6576C221.321 62.2289 218.464 61.5146 215.48 61.5146C212.496 61.5146 209.638 62.2289 206.864 63.6576C204.09 65.0862 201.737 67.4812 199.719 70.9268C197.702 74.3723 196.105 78.8683 194.928 84.4567C193.751 90.0452 193.121 96.9362 193.121 105.13V109.584C193.121 118.954 193.709 126.769 194.928 132.946C196.105 139.123 197.702 144.039 199.719 147.695C201.737 151.35 204.132 153.913 206.864 155.426C209.638 156.897 212.496 157.653 215.48 157.653Z" fill="#96BAF8"/>
<path d="M374.681 186.058C366.443 189.167 358.29 190.764 350.136 190.722C341.983 190.722 334.124 188.705 326.559 184.756C318.994 180.806 311.849 174.545 305.167 165.973C298.484 157.444 292.516 146.267 287.263 132.484L285.666 128.325C280.791 115.509 278.101 103.996 277.681 93.8274C277.218 83.6169 278.563 74.625 281.631 66.8515C284.741 59.0781 289.322 52.4812 295.416 47.1449C301.51 41.8085 308.655 37.5646 316.892 34.4132C325.088 31.3039 333.283 29.7072 341.395 29.6231C349.506 29.5811 357.323 31.4299 364.804 35.1696C372.285 38.9512 379.262 44.7918 385.692 52.6913C392.122 60.5908 397.796 70.9694 402.671 83.785L404.268 87.9448C409.521 101.727 412.505 114.038 413.178 124.837C413.85 135.678 412.716 145.048 409.69 153.074C406.664 161.099 402.125 167.78 396.073 173.2C390.021 178.621 382.918 182.907 374.681 186.058ZM362.913 155.132C365.687 154.082 368.124 152.359 370.142 149.964C372.201 147.611 373.504 144.334 374.092 140.216C374.681 136.098 374.428 130.93 373.336 124.711C372.243 118.492 370.015 111.013 366.695 102.231L365.098 98.0713C362.198 90.4239 359.172 84.2052 356.062 79.3731C352.952 74.583 349.842 70.9273 346.774 68.4482C343.664 65.9692 340.596 64.5405 337.486 64.2044C334.418 63.8682 331.476 64.2044 328.702 65.2969C325.928 66.3473 323.491 68.0281 321.431 70.3391C319.372 72.6501 317.985 75.7595 317.313 79.6672C316.64 83.5749 316.766 88.365 317.649 93.9955C318.532 99.626 320.423 106.307 323.323 113.954L324.92 118.114C328.282 126.896 331.602 133.955 334.922 139.291C338.243 144.628 341.479 148.662 344.673 151.351C347.867 154.04 350.977 155.595 354.087 156.015C357.155 156.519 360.097 156.183 362.913 155.132Z" fill="#96BAF8"/>
<path d="M311.68 151.981L309.2 160.175H314.201L311.68 151.981Z" fill="#EE4F76"/>
<path d="M306.678 168.369H316.722L314.201 160.175H309.199L306.678 168.369Z" fill="#FFF7F8"/>
<path d="M304.156 176.562H319.202L316.723 168.369H306.678L304.156 176.562Z" fill="#EE4F76"/>
<path d="M301.635 184.756H321.724L319.202 176.562H304.156L301.635 184.756Z" fill="#FFF7F8"/>
<path d="M299.828 190.722H311.68H323.574L321.724 184.756H301.635L299.828 190.722Z" fill="#EE4F76"/>
<path d="M327.146 190.723H296.256V195.555H327.146V190.723Z" fill="#EE4F76"/>
<path d="M12.0239 0L13.663 8.4037L18.0759 6.05067L12.0239 0Z" fill="#EE4F76"/>
<path d="M15.3017 16.807L24.1695 12.101L18.0755 6.05029L13.6626 8.40333L15.3017 16.807Z" fill="#FFF7F8"/>
<path d="M16.9403 25.2106L30.2211 18.1515L24.1691 12.1008L15.3013 16.8069L16.9403 25.2106Z" fill="#EE4F76"/>
<path d="M18.581 33.6152L36.3166 24.203L30.2226 18.1523L16.9419 25.2115L18.581 33.6152Z" fill="#FFF7F8"/>
<path d="M19.7573 39.7918L30.2643 34.2033L40.7291 28.6148L36.3162 24.2029L18.5806 33.615L19.7573 39.7918Z" fill="#EE4F76"/>
<path d="M43.8717 26.9433L16.6079 41.4617L18.88 45.7265L46.1438 31.2081L43.8717 26.9433Z" fill="#EE4F76"/>
<path d="M144.117 123.367H142.184V197.697H144.117V123.367Z" fill="#C6A991"/>
<path d="M133.35 197.656V199.589H152.892V197.656H133.35Z" fill="#6D6158"/>
<path d="M192.592 197.68V199.614H212.135V197.68H192.592Z" fill="#6D6158"/>
<path d="M203.334 123.367H201.401V197.697H203.334V123.367Z" fill="#C6A991"/>
<path d="M220.482 129.585H125.373V139.88H220.482V129.585Z" fill="#FFF7F8"/>
<path d="M149.875 139.88H138.107L125.373 129.585H137.099L149.875 139.88Z" fill="#EE4F76"/>
<path d="M161.643 139.88H149.875L137.099 129.585H148.866L161.643 139.88Z" fill="#FFF7F8"/>
<path d="M173.41 139.88H161.643L148.866 129.585H160.634L173.41 139.88Z" fill="#EE4F76"/>
<path d="M185.136 139.88H173.41L160.634 129.585H172.402L185.136 139.88Z" fill="#FFF7F8"/>
<path d="M196.904 139.88H185.136L172.402 129.585H184.17L196.904 139.88Z" fill="#EE4F76"/>
<path d="M208.672 139.88H196.904L184.17 129.585H195.937L208.672 139.88Z" fill="#FFF7F8"/>
<path d="M220.439 139.88H208.672L195.937 129.585H207.705L220.439 139.88Z" fill="#EE4F76"/>
<path d="M220.482 150.174H125.373V160.469H220.482V150.174Z" fill="#FFF7F8"/>
<path d="M149.875 160.469H138.107L125.373 150.174H137.099L149.875 160.469Z" fill="#EE4F76"/>
<path d="M161.643 160.469H149.875L137.099 150.174H148.866L161.643 160.469Z" fill="#FFF7F8"/>
<path d="M173.41 160.469H161.643L148.866 150.174H160.634L173.41 160.469Z" fill="#EE4F76"/>
<path d="M185.136 160.469H173.41L160.634 150.174H172.402L185.136 160.469Z" fill="#FFF7F8"/>
<path d="M196.904 160.469H185.136L172.402 150.174H184.17L196.904 160.469Z" fill="#EE4F76"/>
<path d="M208.672 160.469H196.904L184.17 150.174H195.937L208.672 160.469Z" fill="#FFF7F8"/>
<path d="M220.439 160.469H208.672L195.937 150.174H207.705L220.439 160.469Z" fill="#EE4F76"/>
<path d="M220.482 170.763H125.373V181.058H220.482V170.763Z" fill="#FFF7F8"/>
<path d="M149.875 181.058H138.107L125.373 170.763H137.099L149.875 181.058Z" fill="#EE4F76"/>
<path d="M161.643 181.058H149.875L137.099 170.763H148.866L161.643 181.058Z" fill="#FFF7F8"/>
<path d="M173.41 181.058H161.643L148.866 170.763H160.634L173.41 181.058Z" fill="#EE4F76"/>
<path d="M185.136 181.058H173.41L160.634 170.763H172.402L185.136 181.058Z" fill="#FFF7F8"/>
<path d="M196.904 181.058H185.136L172.402 170.763H184.17L196.904 181.058Z" fill="#EE4F76"/>
<path d="M208.672 181.058H196.904L184.17 170.763H195.937L208.672 181.058Z" fill="#FFF7F8"/>
<path d="M220.439 181.058H208.672L195.937 170.763H207.705L220.439 181.058Z" fill="#EE4F76"/>
<path d="M235.023 206.396H205.141L203.838 204.169L218.758 178.496H221.322L236.242 204.169L235.023 206.396Z" fill="#FFF7F8"/>
<path d="M236.872 208.16H203.25L201.779 205.639L218.59 176.73H221.49L238.301 205.639L236.872 208.16ZM206.192 204.798H233.972L220.103 180.932L206.192 204.798Z" fill="#EE4F76"/>
<path d="M220.062 201.899C219.6 201.899 219.179 201.731 218.885 201.395C218.549 201.059 218.381 200.68 218.381 200.218C218.381 199.756 218.549 199.336 218.885 199.042C219.221 198.705 219.6 198.537 220.062 198.537C220.524 198.537 220.945 198.705 221.239 199.042C221.575 199.378 221.743 199.756 221.743 200.218C221.743 200.68 221.575 201.101 221.239 201.395C220.945 201.731 220.566 201.899 220.062 201.899ZM218.717 187.15H221.449V197.403H218.717V187.15Z" fill="black"/>
</svg>
