<svg width="427" height="178" viewBox="0 0 427 178" fill="none" xmlns="http://www.w3.org/2000/svg">
<path d="M418.842 157.607C449.918 128.513 389.908 98.2893 277.991 109.048C180.604 118.425 108.625 87.531 24.215 122.862C-31.1344 146.011 12.3724 185.821 114.336 176.653C246.453 164.723 380.249 193.733 418.842 157.607Z" fill="#E5EEFF"/>
<path d="M132.94 78.155L91.1133 2.34448" stroke="black" stroke-width="0.5" stroke-miterlimit="10" stroke-linecap="round"/>
<path d="M72.8029 157.649C62.3461 157.649 53.5692 156.31 46.43 153.631C39.3329 150.952 33.5376 147.352 29.1281 142.873C24.6766 138.393 21.443 133.161 19.4272 127.133C17.4115 121.147 16.3196 114.784 16.1516 108.128H54.0731C54.3671 113.988 56.1729 118.719 59.5325 122.277C62.8921 125.877 67.3016 127.635 72.8029 127.635C79.6481 127.635 84.5195 125.5 87.5012 121.188C90.4828 116.919 91.9526 110.807 91.9526 102.979C91.9526 94.6903 90.1468 88.9135 86.4933 85.6483C82.8817 82.3832 78.3042 80.7506 72.7609 80.7506C65.0758 80.7506 59.1125 83.7227 54.913 89.667H19.4272V2.80518H123.113V34.9545H57.0968V56.0107C63.186 51.5315 71.543 49.271 82.1678 49.271C89.4329 49.271 96.1101 50.4013 102.199 52.6199C108.289 54.8804 113.538 58.2293 117.906 62.7085C122.273 67.1876 125.633 72.7551 128.026 79.3273C130.42 85.8995 131.638 93.6438 131.638 102.435C131.638 110.849 130.252 118.426 127.48 125.249C124.709 132.072 120.803 137.849 115.722 142.621C110.64 147.394 104.467 151.077 97.202 153.715C89.9369 156.352 81.7898 157.649 72.8029 157.649Z" fill="#96BAF8"/>
<path d="M210.042 157.649C201.475 157.649 193.496 156.226 186.063 153.421C178.63 150.616 172.204 146.095 166.661 139.858C161.16 133.621 156.834 125.5 153.685 115.411C150.577 105.364 148.981 93.141 148.981 78.8245V74.471C148.981 61.1591 150.535 49.7729 153.685 40.396C156.792 30.9772 161.118 23.2748 166.661 17.2887C172.162 11.3025 178.63 6.90709 186.063 4.14426C193.454 1.38142 201.475 0 210.042 0C218.609 0 226.588 1.38142 234.021 4.14426C241.412 6.90709 247.879 11.2606 253.423 17.2887C258.924 23.3167 263.25 31.0191 266.399 40.396C269.507 49.8148 271.103 61.1591 271.103 74.471V78.8245C271.103 93.141 269.549 105.364 266.399 115.411C263.292 125.458 258.966 133.621 253.423 139.858C247.921 146.095 241.454 150.616 234.021 153.421C226.588 156.226 218.609 157.649 210.042 157.649ZM210.042 125.5C212.94 125.5 215.753 124.788 218.441 123.323C221.129 121.858 223.438 119.388 225.412 115.83C227.386 112.272 228.94 107.499 230.116 101.513C231.291 95.5271 231.879 87.9502 231.879 78.8245V74.471C231.879 66.5173 231.291 59.8196 230.116 54.3776C228.94 48.9357 227.386 44.5821 225.412 41.2332C223.438 37.8843 221.129 35.5401 218.441 34.1587C215.753 32.7773 212.94 32.1075 210.042 32.1075C207.144 32.1075 204.331 32.7773 201.643 34.1587C198.955 35.5401 196.646 37.8843 194.672 41.2332C192.698 44.5821 191.144 48.9357 189.968 54.3776C188.792 59.8196 188.247 66.5173 188.247 74.471V78.8245C188.247 87.9502 188.834 95.5271 189.968 101.513C191.144 107.541 192.698 112.313 194.672 115.83C196.646 119.388 198.955 121.858 201.643 123.323C204.331 124.788 207.144 125.5 210.042 125.5Z" fill="#96BAF8"/>
<path d="M286.304 127.048L336.866 85.3548C341.822 81.2943 346.021 77.6524 349.507 74.3872C352.992 71.122 355.848 68.0662 358.116 65.1778C360.383 62.2893 362.021 59.4846 363.113 56.8055C364.205 54.1264 364.751 51.3636 364.751 48.4333C364.751 43.3681 363.323 39.475 360.509 36.7122C357.696 33.9494 353.664 32.5679 348.415 32.5679C334.598 32.5679 327.711 41.1076 327.711 58.1869H288.488C288.488 39.6425 293.443 25.326 303.396 15.1956C313.349 5.0652 328.341 0 348.373 0C357.654 0 365.801 1.21397 372.772 3.60006C379.743 5.98614 385.538 9.33503 390.2 13.6049C394.861 17.8747 398.305 22.9818 400.531 28.926C402.798 34.8703 403.89 41.3588 403.89 48.4752C403.89 53.7078 402.966 58.6893 401.161 63.4615C399.355 68.2336 396.793 72.8802 393.517 77.3593C390.242 81.8385 386.378 86.192 381.843 90.3781C377.349 94.5643 372.478 98.7085 367.229 102.769L340.856 122.737H405.99V154.886H286.304V127.048Z" fill="#96BAF8"/>
<path d="M398.644 43.829C399.904 42.615 401.122 41.3592 402.34 40.1033L404.188 38.2196L405.994 36.294L408.387 33.7404L401.248 27.2938L398.938 29.7636L397.217 31.6055L395.453 33.4055C394.277 34.6195 393.101 35.8335 391.883 37.0056L389.448 39.3498L396.167 46.2569L398.644 43.829Z" fill="#FFF7F8"/>
<path d="M394.235 34.6191C395.788 33.0284 397.384 31.3958 398.896 29.7632C400.492 32.7772 402.046 35.833 403.516 38.847C401.878 40.5215 400.282 42.1959 398.602 43.8285C397.216 40.7727 395.746 37.6749 394.235 34.6191Z" fill="#EE4F76"/>
<path d="M385.877 55.7591L389.782 52.2846L393.604 48.7264C394.444 47.931 395.325 47.1357 396.123 46.2984L389.404 39.3914C388.606 40.1867 387.766 40.9402 386.968 41.7356L383.273 45.21L379.493 48.6008C378.653 49.3543 377.814 50.1078 376.932 50.8194L383.273 58.0614C384.155 57.3079 385.037 56.5126 385.877 55.7591Z" fill="#FFF7F8"/>
<path d="M382.014 46.2986C383.693 44.7916 385.331 43.2427 387.011 41.6938C388.397 44.7916 389.741 47.9312 391.085 51.0707C389.405 52.6615 387.641 54.1685 385.919 55.7592C384.617 52.5778 383.316 49.4382 382.014 46.2986Z" fill="#EE4F76"/>
<path d="M372.522 66.9785C373.908 65.8901 375.21 64.7598 376.554 63.6714C377.897 62.583 379.241 61.4528 380.585 60.3225L383.231 58.062L376.89 50.8201L374.328 53.0387C373.068 54.169 371.724 55.2155 370.422 56.3039C369.12 57.3923 367.819 58.4807 366.475 59.5272L363.787 61.6202L369.75 69.1552L372.522 66.9785Z" fill="#FFF7F8"/>
<path d="M369.121 57.351C370.843 55.9277 372.649 54.5044 374.328 52.9974C375.546 56.1789 376.764 59.3603 377.898 62.5418C376.092 64.0069 374.329 65.5139 372.481 66.9372C371.431 63.7557 370.297 60.5324 369.121 57.351Z" fill="#EE4F76"/>
<path d="M358.665 77.5268L360.806 76.0198L362.906 74.4291L367.064 71.2895L369.793 69.1128L363.83 61.5778L361.184 63.6708L357.111 66.7267L355.053 68.2755L352.995 69.7825L350.266 71.75L355.851 79.578L358.665 77.5268Z" fill="#FFF7F8"/>
<path d="M355.766 67.7732L361.183 63.6708C362.233 66.8941 363.283 70.1174 364.291 73.3826C362.443 74.764 360.595 76.1873 358.705 77.5268C357.739 74.2617 356.774 71.0383 355.766 67.7732Z" fill="#EE4F76"/>
<path d="M344.343 87.4487C347.283 85.5649 350.139 83.5556 352.994 81.5881C353.96 80.9183 354.884 80.2486 355.85 79.5788L350.223 71.7507C349.299 72.4205 348.375 73.0903 347.451 73.7182C344.637 75.6438 341.866 77.6113 339.01 79.4532L336.154 81.2951L341.404 89.3743L344.343 87.4487Z" fill="#FFF7F8"/>
<path d="M341.867 77.57L347.453 73.7188C348.376 76.9839 349.258 80.2491 350.098 83.5561L347.243 85.5236L344.345 87.4492C343.547 84.1422 342.749 80.8351 341.867 77.57Z" fill="#EE4F76"/>
<path d="M329.602 96.6992C332.626 94.941 335.565 93.0573 338.505 91.2154L339.975 90.2944L341.445 89.3316L336.195 81.2524L334.767 82.1734L333.34 83.0525C330.442 84.8525 327.586 86.6944 324.647 88.3688L321.707 90.0851L326.578 98.3736L329.602 96.6992Z" fill="#FFF7F8"/>
<path d="M327.588 86.7364L333.341 83.1364C334.097 86.4434 334.853 89.7504 335.567 93.0993L332.627 94.9412L329.646 96.6993C328.932 93.3504 328.26 90.0434 327.588 86.7364Z" fill="#EE4F76"/>
<path d="M314.401 105.239C317.509 103.648 320.532 101.89 323.556 100.215L325.068 99.378L326.579 98.499L321.708 90.2104L320.238 91.0895L318.768 91.9268C315.787 93.5593 312.847 95.2757 309.823 96.8245L306.842 98.4152L311.293 106.913L314.401 105.239Z" fill="#FFF7F8"/>
<path d="M312.848 95.1918L318.769 91.8848C319.357 95.2337 319.945 98.5826 320.491 101.931L317.467 103.648L314.401 105.28C313.898 101.89 313.394 98.5407 312.848 95.1918Z" fill="#EE4F76"/>
<path d="M298.821 113.067L301.214 111.978L303.566 110.806L308.27 108.462C309.32 107.96 310.327 107.416 311.377 106.871L306.926 98.3735C305.918 98.9177 304.91 99.4201 303.902 99.9224L299.325 102.183L297.057 103.313L294.747 104.402L291.682 105.825L295.713 114.532L298.821 113.067Z" fill="#FFF7F8"/>
<path d="M297.771 102.937L303.861 99.9229C304.323 103.272 304.743 106.662 305.121 110.053C303.021 111.1 300.963 112.146 298.821 113.109C298.485 109.677 298.149 106.328 297.771 102.937Z" fill="#EE4F76"/>
<path d="M282.821 120.142C284.459 119.514 286.054 118.802 287.65 118.091L292.48 115.998C293.53 115.537 294.579 115.035 295.629 114.533L291.598 105.825C290.59 106.286 289.54 106.788 288.532 107.249L283.871 109.258C282.317 109.928 280.763 110.639 279.167 111.226L276.018 112.481L279.587 121.398L282.821 120.142Z" fill="#FFF7F8"/>
<path d="M282.318 109.928L288.534 107.249C288.828 110.639 289.038 113.988 289.29 117.421L286.098 118.802C285.048 119.263 283.956 119.723 282.864 120.142C282.696 116.751 282.528 113.36 282.318 109.928Z" fill="#EE4F76"/>
<path d="M266.486 126.337C269.761 125.123 273.079 123.951 276.313 122.695L279.546 121.397L275.977 112.481L272.827 113.737C269.677 114.951 266.444 116.081 263.294 117.253L260.061 118.3L263.126 127.425L266.486 126.337Z" fill="#FFF7F8"/>
<path d="M266.527 116.123C268.627 115.328 270.769 114.616 272.869 113.779C272.995 117.212 273.037 120.56 273.079 123.951L266.527 126.337C266.527 122.947 266.527 119.514 266.527 116.123Z" fill="#EE4F76"/>
<path d="M249.814 131.612L254.853 130.105L257.373 129.393L259.851 128.556L263.168 127.467L260.103 118.342L256.869 119.43L254.475 120.225L252.04 120.937L247.168 122.402L245.53 122.863L243.893 123.281L246.454 132.574L248.134 132.114L249.814 131.612Z" fill="#FFF7F8"/>
<path d="M250.402 121.397C252.586 120.769 254.728 120.142 256.87 119.388C256.786 122.779 256.702 126.211 256.534 129.602L249.814 131.612C250.066 128.221 250.276 124.788 250.402 121.397Z" fill="#EE4F76"/>
<path d="M232.847 135.923L237.97 134.751C239.692 134.374 241.372 133.872 243.052 133.453L246.453 132.574L243.892 123.323L240.616 124.202C238.978 124.621 237.341 125.081 235.703 125.458L230.747 126.588L227.43 127.342L229.403 136.76L232.847 135.923Z" fill="#FFF7F8"/>
<path d="M234.063 125.792C235.154 125.541 236.288 125.332 237.338 125.039L240.614 124.16C240.32 127.551 240.026 130.941 239.648 134.332C237.38 134.918 235.112 135.379 232.803 135.923C233.307 132.532 233.685 129.141 234.063 125.792Z" fill="#EE4F76"/>
<path d="M215.629 139.146L218.233 138.728C219.115 138.602 219.955 138.476 220.837 138.309L226.002 137.346L229.446 136.676L227.472 127.258L224.154 127.886L219.157 128.848C218.317 129.016 217.477 129.141 216.637 129.267L214.117 129.644L210.758 130.146L212.144 139.649L215.629 139.146Z" fill="#FFF7F8"/>
<path d="M217.478 129.141C219.703 128.765 221.929 128.304 224.113 127.886C223.609 131.235 223.105 134.583 222.517 137.974C221.383 138.183 220.207 138.435 219.073 138.602L215.588 139.146C216.302 135.839 216.932 132.49 217.478 129.141Z" fill="#EE4F76"/>
<path d="M198.242 141.323C200.006 141.197 201.728 140.988 203.492 140.779L208.741 140.193C209.917 140.067 211.051 139.9 212.227 139.69L210.841 130.188C209.707 130.355 208.615 130.523 207.481 130.648L202.442 131.234C200.762 131.444 199.082 131.653 197.403 131.737L194.043 131.988L194.757 141.574L198.242 141.323Z" fill="#FFF7F8"/>
<path d="M200.719 131.402L207.438 130.649C206.724 133.956 205.968 137.263 205.212 140.57L201.727 140.988C201.139 141.072 200.551 141.114 199.963 141.198L198.199 141.323L199.501 136.425C199.921 134.751 200.341 133.076 200.719 131.402Z" fill="#EE4F76"/>
<path d="M180.69 142.287L185.939 142.077L188.585 141.994C189.467 141.952 190.349 141.952 191.23 141.868L194.716 141.617L194.002 132.031L190.643 132.282C189.803 132.366 188.963 132.408 188.123 132.408L185.603 132.491L180.522 132.659C179.388 132.701 178.254 132.659 177.162 132.659L177.204 142.287C178.38 142.287 179.514 142.329 180.69 142.287Z" fill="#FFF7F8"/>
<path d="M183.88 132.534L187.24 132.408C188.374 132.367 189.508 132.367 190.6 132.241C189.676 135.548 188.71 138.771 187.66 141.995L180.647 142.246C181.823 139.022 182.872 135.799 183.88 132.534Z" fill="#EE4F76"/>
<path d="M163.134 141.951C166.662 142.119 170.147 142.328 173.675 142.286H177.202L177.16 132.658H173.801C170.441 132.7 167.04 132.491 163.68 132.323L160.32 132.156L159.648 141.742L163.134 141.951Z" fill="#FFF7F8"/>
<path d="M167.04 132.49C168.174 132.532 169.266 132.616 170.4 132.658H173.759C172.584 135.839 171.408 139.063 170.148 142.244L163.135 141.909C164.479 138.811 165.78 135.63 167.04 132.49Z" fill="#EE4F76"/>
<path d="M395.032 139.648C398.517 139.187 402.045 138.685 405.53 138.015C406.706 137.806 407.882 137.555 409.058 137.345L407.042 127.927C405.95 128.136 404.858 128.387 403.766 128.555C400.491 129.182 397.131 129.643 393.772 130.103L390.412 130.522L391.504 140.066L395.032 139.648Z" fill="#FFF7F8"/>
<path d="M397.13 129.643C399.356 129.308 401.582 128.973 403.765 128.555C403.261 131.903 402.673 135.252 402.001 138.601C399.65 138.978 397.34 139.313 394.988 139.606C395.786 136.299 396.5 132.95 397.13 129.643Z" fill="#EE4F76"/>
<path d="M377.561 141.364C381.046 141.113 384.532 140.82 388.06 140.444L391.545 140.067L390.453 130.522L387.094 130.899C383.692 131.234 380.332 131.527 376.931 131.778C375.797 131.862 374.663 131.946 373.529 131.988L374.117 141.574C375.251 141.532 376.385 141.448 377.561 141.364Z" fill="#FFF7F8"/>
<path d="M380.249 131.485C382.517 131.317 384.785 131.108 387.01 130.857C386.212 134.164 385.373 137.471 384.491 140.736C382.181 140.945 379.829 141.155 377.52 141.322C378.485 138.057 379.409 134.792 380.249 131.485Z" fill="#EE4F76"/>
<path d="M360.09 142.244C363.576 142.16 367.061 141.993 370.547 141.825L374.032 141.616L373.444 132.03L370.043 132.239C366.641 132.406 363.198 132.574 359.796 132.658L356.395 132.741L356.605 142.328L360.09 142.244Z" fill="#FFF7F8"/>
<path d="M363.24 132.491C365.508 132.407 367.775 132.281 370.085 132.198C369.119 135.463 368.111 138.728 367.103 141.951C364.794 142.035 362.442 142.161 360.132 142.202C361.182 138.979 362.19 135.756 363.24 132.491Z" fill="#EE4F76"/>
<path d="M342.664 142.453C346.15 142.453 349.635 142.453 353.121 142.37L356.607 142.286L356.397 132.7L352.953 132.783C349.509 132.825 346.108 132.867 342.664 132.867C341.53 132.867 340.397 132.867 339.221 132.825L339.137 142.453C340.313 142.453 341.488 142.453 342.664 142.453Z" fill="#FFF7F8"/>
<path d="M346.107 132.868C348.375 132.826 350.685 132.868 352.952 132.784C351.86 136.007 350.769 139.231 349.635 142.454C347.325 142.496 344.973 142.496 342.664 142.496C343.839 139.273 344.973 136.049 346.107 132.868Z" fill="#EE4F76"/>
<path d="M325.237 142.118C328.722 142.243 332.208 142.327 335.693 142.369L339.179 142.411L339.263 132.783L335.819 132.741C332.376 132.699 328.974 132.615 325.531 132.49L322.087 132.364L321.709 141.95L325.237 142.118Z" fill="#FFF7F8"/>
<path d="M328.975 132.658C331.243 132.741 333.552 132.741 335.82 132.825C334.644 136.007 333.426 139.188 332.166 142.369C329.857 142.328 327.505 142.244 325.195 142.16C326.497 138.979 327.757 135.797 328.975 132.658Z" fill="#EE4F76"/>
<path d="M307.809 141.28L313.058 141.615L318.266 141.866L321.751 141.992L322.129 132.406L318.686 132.28L313.562 132.029L308.439 131.694L304.995 131.485L304.365 141.071L307.809 141.28Z" fill="#FFF7F8"/>
<path d="M311.842 131.903C314.11 132.029 316.42 132.155 318.687 132.238C317.385 135.378 316.084 138.517 314.782 141.657C312.472 141.573 310.162 141.406 307.811 141.28C309.196 138.183 310.54 135.043 311.842 131.903Z" fill="#EE4F76"/>
<path d="M290.464 139.983C293.95 140.318 297.393 140.569 300.879 140.862L304.364 141.113L305.036 131.527L301.635 131.276C298.233 131.025 294.79 130.732 291.388 130.439C290.254 130.355 289.12 130.229 287.986 130.104L287.062 139.648C288.154 139.774 289.288 139.858 290.464 139.983Z" fill="#FFF7F8"/>
<path d="M294.746 130.69L301.592 131.234C300.206 134.332 298.82 137.43 297.392 140.527C295.082 140.36 292.773 140.151 290.463 139.941C291.891 136.885 293.319 133.788 294.746 130.69Z" fill="#EE4F76"/>
<path d="M273.119 138.141C276.563 138.56 280.049 138.937 283.492 139.313L286.978 139.648L287.902 130.104L284.5 129.769C281.098 129.392 277.697 129.057 274.295 128.639C273.161 128.513 272.027 128.388 270.894 128.22L269.676 137.764C270.81 137.89 271.985 138.016 273.119 138.141Z" fill="#FFF7F8"/>
<path d="M277.654 129.015L284.457 129.727C282.987 132.783 281.517 135.838 280.005 138.936C277.696 138.685 275.386 138.434 273.076 138.141C274.672 135.085 276.184 132.071 277.654 129.015Z" fill="#EE4F76"/>
<path d="M255.862 135.838C257.583 136.089 259.305 136.341 261.027 136.592C262.749 136.843 264.471 137.094 266.192 137.303L269.636 137.764L270.854 128.22L267.452 127.801C265.73 127.592 264.051 127.34 262.371 127.089C260.691 126.838 258.969 126.629 257.289 126.336L253.888 125.833L252.418 135.336L255.862 135.838Z" fill="#FFF7F8"/>
<path d="M260.69 126.838C262.958 127.131 265.225 127.466 267.493 127.759C265.939 130.773 264.385 133.829 262.79 136.843C260.48 136.508 258.17 136.215 255.902 135.838C257.498 132.824 259.094 129.852 260.69 126.838Z" fill="#EE4F76"/>
<path d="M238.642 133.034C242.085 133.62 245.529 134.248 248.973 134.792C250.106 134.96 251.282 135.169 252.416 135.336L253.886 125.834C252.752 125.666 251.618 125.457 250.484 125.29C247.083 124.745 243.723 124.159 240.364 123.573L237.004 122.945L235.24 132.406L238.642 133.034Z" fill="#FFF7F8"/>
<path d="M243.766 124.159C246.034 124.578 248.259 124.913 250.527 125.29C248.889 128.262 247.21 131.234 245.53 134.206L238.643 132.992C240.364 130.062 242.086 127.09 243.766 124.159Z" fill="#EE4F76"/>
<path d="M221.549 129.644L226.672 130.732L231.796 131.737C232.93 131.946 234.064 132.155 235.239 132.365L237.003 122.904C235.869 122.695 234.735 122.486 233.644 122.276L228.604 121.272L223.565 120.225C222.431 119.974 221.339 119.765 220.205 119.513L218.105 128.89C219.281 129.141 220.415 129.393 221.549 129.644Z" fill="#FFF7F8"/>
<path d="M226.926 120.936C229.152 121.397 231.42 121.815 233.645 122.276C231.924 125.206 230.16 128.137 228.396 131.025C226.128 130.564 223.861 130.104 221.551 129.602C223.357 126.755 225.162 123.867 226.926 120.936Z" fill="#EE4F76"/>
<path d="M204.543 125.708C206.223 126.127 207.945 126.545 209.625 126.964C211.304 127.382 213.026 127.801 214.706 128.178L218.108 128.931L220.207 119.554L216.848 118.801C215.168 118.424 213.53 118.006 211.85 117.629C210.171 117.252 208.533 116.833 206.853 116.415L203.535 115.578L201.1 124.871L204.543 125.708Z" fill="#FFF7F8"/>
<path d="M210.214 117.21C212.44 117.712 214.666 118.298 216.891 118.759C215.044 121.647 213.196 124.494 211.348 127.34C209.08 126.796 206.813 126.294 204.545 125.708C206.477 122.861 208.366 120.057 210.214 117.21Z" fill="#EE4F76"/>
<path d="M187.703 121.146C191.063 122.109 194.423 123.072 197.782 123.951L201.142 124.83L203.577 115.537L200.26 114.658C196.942 113.779 193.667 112.858 190.391 111.895L187.115 110.932L184.344 120.141L187.703 121.146Z" fill="#FFF7F8"/>
<path d="M193.665 112.858L196.941 113.779L200.259 114.658C198.327 117.463 196.353 120.267 194.379 123.03L187.66 121.146C189.718 118.384 191.692 115.621 193.665 112.858Z" fill="#EE4F76"/>
<path d="M170.988 115.913L175.986 117.546L180.983 119.137C182.075 119.472 183.209 119.807 184.343 120.141L187.115 110.932C186.023 110.597 184.931 110.304 183.839 109.927L178.968 108.378L174.096 106.788C173.004 106.453 171.954 106.076 170.863 105.699L167.713 114.783C168.805 115.16 169.897 115.537 170.988 115.913Z" fill="#FFF7F8"/>
<path d="M177.331 107.876C179.472 108.588 181.656 109.258 183.84 109.97C181.782 112.69 179.724 115.411 177.666 118.091C175.441 117.421 173.215 116.667 171.031 115.914C173.131 113.235 175.273 110.556 177.331 107.876Z" fill="#EE4F76"/>
<path d="M154.569 109.927L157.004 110.89L159.482 111.811C161.12 112.397 162.758 113.066 164.395 113.611L167.713 114.783L170.863 105.699L167.629 104.569C166.033 104.024 164.437 103.397 162.842 102.81L160.448 101.931L158.054 101.01L154.863 99.7546L151.293 108.671L154.569 109.927Z" fill="#FFF7F8"/>
<path d="M161.247 102.224C163.388 103.02 165.488 103.815 167.63 104.569C165.488 107.206 163.304 109.801 161.079 112.438C158.895 111.643 156.711 110.806 154.527 109.969C156.837 107.373 159.021 104.82 161.247 102.224Z" fill="#EE4F76"/>
<path d="M138.401 103.187C141.592 104.61 144.826 106.033 148.059 107.331L151.293 108.671L154.905 99.7543L151.755 98.4566C148.605 97.1589 145.498 95.7775 142.39 94.4379L139.282 93.0146L135.209 101.722L138.401 103.187Z" fill="#FFF7F8"/>
<path d="M145.457 95.7775L148.564 97.117L151.714 98.4147C149.446 100.926 147.136 103.48 144.785 105.95C142.643 105.029 140.501 104.108 138.359 103.145C140.753 100.759 143.147 98.2473 145.457 95.7775Z" fill="#EE4F76"/>
<path d="M122.61 95.526L127.313 97.9121L132.058 100.214C133.108 100.717 134.158 101.219 135.25 101.721L139.324 93.0143C138.274 92.5539 137.266 92.0515 136.258 91.5492L131.68 89.3306L127.145 87.0282C126.137 86.5259 125.171 85.9398 124.163 85.4375L119.586 93.8934C120.51 94.3958 121.56 94.9818 122.61 95.526Z" fill="#FFF7F8"/>
<path d="M130.088 88.5349C132.104 89.5814 134.162 90.5442 136.178 91.5489C133.784 93.935 131.306 96.3211 128.871 98.6653C126.771 97.6606 124.713 96.5304 122.613 95.4839C125.133 93.2234 127.653 90.8791 130.088 88.5349Z" fill="#EE4F76"/>
<path d="M107.282 86.861C108.794 87.782 110.306 88.7029 111.818 89.582L116.395 92.2193L119.503 93.8937L124.08 85.4377L121.099 83.8052L116.689 81.2935C115.219 80.4563 113.792 79.5353 112.322 78.6981C111.356 78.112 110.39 77.526 109.466 76.8981L104.301 85.0191C105.267 85.6052 106.275 86.2331 107.282 86.861Z" fill="#FFF7F8"/>
<path d="M115.218 80.4141C117.15 81.5862 119.124 82.6746 121.098 83.8048C118.536 86.0235 115.974 88.2421 113.329 90.4607C111.271 89.3305 109.297 88.0746 107.281 86.8607C109.969 84.7258 112.615 82.5908 115.218 80.4141Z" fill="#EE4F76"/>
<path d="M92.5822 77.1078C94.0101 78.1543 95.4379 79.2008 96.9077 80.1636C98.3775 81.1264 99.8054 82.173 101.317 83.0939L104.299 84.9776L109.464 76.8566L106.609 75.0147C105.181 74.0938 103.795 73.1309 102.409 72.21C100.981 71.2891 99.6374 70.2844 98.2516 69.2797C97.3277 68.6099 96.4038 67.982 95.5219 67.3123L89.7266 75.0147C90.6924 75.7263 91.6583 76.3961 92.5822 77.1078Z" fill="#FFF7F8"/>
<path d="M100.981 71.2892C102.871 72.545 104.677 73.8427 106.608 75.0567C103.879 77.1498 101.191 79.1591 98.3773 81.1266L95.4377 79.1591L92.582 77.1079C95.4377 75.1823 98.2514 73.2567 100.981 71.2892Z" fill="#EE4F76"/>
<path d="M78.7248 66.1404L80.7405 67.8986L82.7983 69.573C84.1841 70.7033 85.528 71.8335 86.9558 72.8801L89.7695 75.015L95.5648 67.3125L92.8771 65.2613C91.5333 64.2567 90.2314 63.1683 88.9296 62.1218L86.9558 60.531L85.066 58.8985L82.5463 56.6798L76.1211 63.8381L78.7248 66.1404Z" fill="#FFF7F8"/>
<path d="M87.5856 61.0754L90.1892 63.2104L91.4911 64.2569L92.8349 65.2615C91.4071 66.1825 89.9793 67.1034 88.5094 68.0244C87.0816 68.9035 85.6118 69.8244 84.142 70.6616L81.4123 68.443C80.4884 67.6895 79.6065 66.8941 78.7246 66.1406C81.7063 64.508 84.6459 62.8336 87.5856 61.0754Z" fill="#EE4F76"/>
<path d="M65.8752 53.9585C66.5051 54.5864 67.093 55.2562 67.723 55.8841L69.6127 57.7679L71.5025 59.6516C72.1324 60.2795 72.8044 60.8656 73.4343 61.4516L76.038 63.8377L82.4632 56.6795L79.9855 54.419C79.3556 53.8329 78.7257 53.2887 78.1377 52.7027L76.3319 50.9445L74.5261 49.1863C73.9382 48.6003 73.3923 47.9724 72.8044 47.3444L70.4946 44.9165L63.3555 51.3631L65.8752 53.9585Z" fill="#FFF7F8"/>
<path d="M75.1979 49.7305C76.7937 51.2793 78.3475 52.9119 80.0273 54.377C77.0037 55.9678 73.938 57.5166 70.8724 58.9818C69.1926 57.3073 67.4708 55.6747 65.875 53.9166C69.0246 52.577 72.0903 51.1956 75.1979 49.7305Z" fill="#EE4F76"/>
<path d="M91.1141 2.34448L78.5156 85.6481" stroke="black" stroke-width="0.5" stroke-miterlimit="10" stroke-linecap="round"/>
<path d="M137.364 66.6088L72.875 73.3108L77.2277 114.861L141.717 108.159L137.364 66.6088Z" fill="#FFF7F8"/>
<ellipse rx="16.9862" ry="16.9301" transform="matrix(0.994635 -0.103447 0.10414 0.994563 106.853 90.8006)" fill="#EE4F76"/>
<rect width="23.9805" height="5.97534" transform="matrix(0.994635 -0.103447 0.10414 0.994563 94.6152 89.0712)" fill="#FFF7F8"/>
</svg>
