<svg width="16" height="16" viewBox="0 0 16 16" fill="none" xmlns="http://www.w3.org/2000/svg">
<path fill-rule="evenodd" clip-rule="evenodd" d="M5 2C5 0.89543 5.89543 0 7 0H9C10.1046 0 11 0.895431 11 2V3H14C14.5523 3 15 3.44772 15 4C15 4.55228 14.5523 5 14 5H2C1.44772 5 1 4.55228 1 4C1 3.44772 1.44772 3 2 3H5V2ZM9 2V3H7V2H9Z" fill="#E14761"/>
<path d="M4 7C4 6.44772 3.55228 6 3 6C2.44772 6 2 6.44772 2 7V13C2 14.6569 3.34315 16 5 16H11C12.6569 16 14 14.6569 14 13V7C14 6.44772 13.5523 6 13 6C12.4477 6 12 6.44772 12 7V13C12 13.5523 11.5523 14 11 14H5C4.44772 14 4 13.5523 4 13V7Z" fill="#E14761"/>
<path d="M5.79289 7.29289C6.18342 6.90237 6.81658 6.90237 7.20711 7.29289L8 8.08579L8.79289 7.29289C9.18342 6.90237 9.81658 6.90237 10.2071 7.29289C10.5976 7.68342 10.5976 8.31658 10.2071 8.70711L9.41421 9.5L10.2071 10.2929C10.5976 10.6834 10.5976 11.3166 10.2071 11.7071C9.81658 12.0976 9.18342 12.0976 8.79289 11.7071L8 10.9142L7.20711 11.7071C6.81658 12.0976 6.18342 12.0976 5.79289 11.7071C5.40237 11.3166 5.40237 10.6834 5.79289 10.2929L6.58579 9.5L5.79289 8.70711C5.40237 8.31658 5.40237 7.68342 5.79289 7.29289Z" fill="#E14761"/>
</svg>
