<svg width="438" height="362" viewBox="0 0 438 362" fill="none" xmlns="http://www.w3.org/2000/svg">
<g opacity="0.1">
<g opacity="0.1">
<path opacity="0.1" d="M39.2952 245.357C39.0451 244.036 38.6522 242.75 38.1163 241.535C37.7948 240.785 37.902 239.928 38.4379 239.285L40.617 236.606L37.3304 232.605L34.294 234.213C33.5795 234.606 32.6865 234.534 32.0077 234.07C30.9003 233.32 29.7215 232.677 28.4712 232.177C27.721 231.891 27.1851 231.177 27.1137 230.355L26.7922 226.926L21.6481 226.426L20.6478 229.748C20.3978 230.534 19.7548 231.105 18.9331 231.248C17.6114 231.498 16.3254 231.891 15.1108 232.427C14.3606 232.748 13.5033 232.641 12.8602 232.105L10.181 229.927L6.18007 233.213L7.7876 236.249C8.18055 236.963 8.10911 237.856 7.64471 238.535C6.89453 239.642 6.25151 240.821 5.75139 242.071C5.46561 242.821 4.75115 243.357 3.92952 243.428L0.500129 243.75L0 248.894L3.32224 249.894C4.10814 250.144 4.6797 250.787 4.82259 251.608C5.07265 252.93 5.46561 254.216 6.00146 255.43C6.32296 256.18 6.21579 257.073 5.67995 257.681L3.50085 260.36L6.78735 264.36L9.8238 262.753C10.5383 262.36 11.4313 262.431 12.1101 262.896C13.2175 263.646 14.3963 264.289 15.6466 264.789C16.3968 265.074 16.9327 265.789 17.0041 266.61L17.3256 270.039L22.4697 270.54L23.47 267.218C23.72 266.432 24.363 265.86 25.1847 265.717C26.5064 265.467 27.7924 265.074 29.007 264.539C29.7572 264.217 30.6145 264.324 31.2575 264.86L33.9368 267.039L37.9377 263.753L36.3302 260.717C35.9373 260.002 36.0087 259.109 36.4731 258.431C37.2233 257.323 37.8663 256.145 38.3664 254.894C38.6522 254.144 39.3666 253.609 40.1883 253.537L43.6177 253.216L44.1178 248.072L40.7956 247.072C40.0454 246.822 39.4381 246.143 39.2952 245.357ZM20.7907 261.574C13.5747 260.86 8.28772 254.43 9.00218 247.215C9.71664 239.999 16.1468 234.713 23.3628 235.427C30.5788 236.142 35.8658 242.571 35.1514 249.787C34.4369 257.002 28.0068 262.253 20.7907 261.574Z" fill="#2A94F4"/>
<path opacity="0.1" d="M13.3609 247.607C13.8253 242.785 18.112 239.285 22.9346 239.749C27.7572 240.213 31.258 244.5 30.7936 249.322C30.3292 254.144 26.0425 257.645 21.2199 257.18C16.3973 256.716 12.8965 252.43 13.3609 247.607Z" fill="#2A94F4"/>
</g>
</g>
<path opacity="0.1" d="M199.228 361.839C288.503 361.839 360.874 355.985 360.874 348.765C360.874 341.545 288.503 335.692 199.228 335.692C109.953 335.692 37.5818 341.545 37.5818 348.765C37.5818 355.985 109.953 361.839 199.228 361.839Z" fill="#5085F1"/>
<path opacity="0.19" d="M150.214 307.081C150.214 310.117 152.679 312.582 155.715 312.582H353.37C356.407 312.582 358.872 310.117 358.872 307.081V136.913H150.25V307.081H150.214Z" fill="#3D75E4"/>
<path d="M212.298 236.82C213.227 240.035 214.513 243.143 216.156 246.107C217.156 247.893 217.085 250.108 215.942 251.822L211.155 259.002L220.336 268.182L227.516 263.396C229.231 262.253 231.446 262.181 233.232 263.181C236.161 264.824 239.269 266.11 242.52 267.039C244.484 267.611 245.985 269.218 246.413 271.254L248.092 279.719H261.06L262.775 271.218C263.168 269.218 264.668 267.575 266.668 267.003C269.883 266.075 272.991 264.789 275.956 263.146C277.742 262.145 279.957 262.217 281.672 263.36L288.852 268.146L298.033 258.966L293.246 251.787C292.103 250.072 292.032 247.858 293.032 246.072C294.675 243.143 295.961 240.035 296.89 236.785C297.462 234.82 299.069 233.32 301.105 232.891L309.572 231.212V218.246L301.07 216.532C299.069 216.139 297.426 214.639 296.854 212.638C295.925 209.423 294.639 206.316 292.996 203.351C291.996 201.565 292.067 199.351 293.21 197.636L297.997 190.456L288.817 181.277L281.636 186.063C279.922 187.206 277.707 187.277 275.921 186.277C272.991 184.634 269.883 183.348 266.633 182.42C264.668 181.848 263.168 180.241 262.739 178.205L261.06 169.739H248.092L246.378 178.24C245.985 180.241 244.484 181.884 242.484 182.455C239.269 183.384 236.161 184.67 233.196 186.313C231.41 187.313 229.195 187.242 227.48 186.099L220.3 181.312L211.119 190.492L215.906 197.672C217.049 199.386 217.121 201.601 216.12 203.387C214.477 206.316 213.191 209.423 212.262 212.674C211.691 214.639 210.083 216.139 208.047 216.567L199.581 218.246V231.212L208.083 232.927C210.119 233.32 211.762 234.82 212.298 236.82ZM254.523 191.778C272.706 191.778 287.459 206.53 287.459 224.711C287.459 242.893 272.706 257.645 254.523 257.645C236.34 257.645 221.586 242.893 221.586 224.711C221.586 206.566 236.34 191.814 254.523 191.778Z" fill="#3D75E4"/>
<path d="M150.214 109.445V125.911H358.836V109.445C358.836 106.409 356.371 103.944 353.334 103.944H155.68C152.643 103.944 150.214 106.409 150.214 109.445ZM205.12 109.445H216.087V120.446H205.12V109.445ZM183.151 109.445H194.117V120.446H183.151V109.445ZM161.181 109.445H172.148V120.446H161.181V109.445Z" fill="#3D75E4"/>
<path d="M276.496 224.747C276.496 236.856 266.672 246.715 254.527 246.715C242.381 246.715 232.557 236.892 232.557 224.747C232.557 212.638 242.381 202.78 254.527 202.78C266.637 202.78 276.496 212.603 276.496 224.747Z" fill="#3D75E4"/>
<path d="M260.025 10.6443C260.025 7.60812 257.561 5.14348 254.524 5.14348H56.8692C53.8328 5.14348 51.3679 7.60812 51.3679 10.6443V27.111H259.99V10.6443H260.025ZM73.3375 21.6102H62.3706V10.6443H73.3375V21.6102ZM95.3071 21.6102H84.3402V10.6443H95.3071V21.6102ZM117.277 21.6102H106.31V10.6443H117.277V21.6102Z" fill="#3D75E4"/>
<path opacity="0.19" d="M139.211 109.445C139.211 100.336 146.57 92.9779 155.679 92.9779H259.99V38.077H51.3686V208.245C51.3686 211.281 53.8335 213.745 56.8699 213.745H139.211V109.445ZM183.15 65.5453H194.117V76.5112H183.15V65.5453ZM161.181 65.5453H172.148V76.5112H161.181V65.5453ZM139.211 65.5453H150.178V76.5112H139.211V65.5453ZM117.277 197.279H73.3382V186.313H117.277V197.279ZM117.277 175.311H73.3382V164.345H117.277V175.311ZM117.277 153.38H73.3382V142.414H117.277V153.38ZM117.277 131.412H73.3382V120.446H117.277V131.412ZM117.277 109.445H73.3382V98.4787H117.277V109.445ZM117.277 76.5112V65.5453H128.244V76.5112H117.277Z" fill="#3D75E4"/>
<path d="M71.8372 282.434C71.1942 280.791 70.4083 279.183 69.4081 277.719C68.8008 276.826 68.7651 275.647 69.2652 274.719L71.48 270.718L66.2645 266.289L62.6922 269.146C61.8348 269.825 60.6917 269.968 59.6915 269.503C58.0839 268.789 56.3692 268.218 54.6545 267.896C53.5828 267.682 52.7255 266.896 52.4397 265.86L51.1894 261.502L44.3663 262.074L43.8305 266.61C43.7233 267.682 42.9731 268.61 41.9729 269.003C40.3296 269.646 38.7221 270.432 37.2575 271.432C36.3644 272.04 35.1855 272.075 34.2567 271.575L30.2558 269.361L25.8261 274.576L28.684 278.148C29.3627 279.005 29.5056 280.148 29.0412 281.148C28.3267 282.755 27.7552 284.47 27.4337 286.184C27.2193 287.256 26.4334 288.113 25.3975 288.399L21.0035 289.649L21.5751 296.472L26.1119 297.007C27.1836 297.115 28.1124 297.865 28.5054 298.865C29.1484 300.508 29.9343 302.115 30.9345 303.58C31.5418 304.473 31.5775 305.652 31.0774 306.58L28.8626 310.581L34.0781 315.01L37.6504 312.153C38.5078 311.474 39.6509 311.331 40.6511 311.795C42.2587 312.51 43.9734 313.081 45.6881 313.403C46.7598 313.617 47.6171 314.403 47.9029 315.439L49.1532 319.832L55.9763 319.261L56.5121 314.724C56.6193 313.653 57.3695 312.724 58.3697 312.331C60.013 311.688 61.6205 310.902 63.0851 309.902C63.9782 309.295 65.157 309.259 66.0858 309.759L70.0868 311.974L74.5165 306.759L71.6586 303.187C70.9799 302.33 70.837 301.187 71.3014 300.187C72.0159 298.579 72.5874 296.865 72.9089 295.15C73.1233 294.078 73.9092 293.221 74.9451 292.935L79.3391 291.685L78.7675 284.863L74.2307 284.327C73.159 284.184 72.2302 283.434 71.8372 282.434ZM51.6181 307.973C42.0443 308.759 33.6495 301.651 32.8278 292.078C32.0419 282.505 39.1508 274.111 48.7245 273.29C58.2983 272.504 66.6931 279.612 67.5148 289.185C68.3007 298.758 61.1918 307.152 51.6181 307.973Z" fill="#E9A35D"/>
<path d="M38.6146 291.614C38.0788 285.22 42.83 279.613 49.1886 279.077C55.583 278.541 61.1915 283.292 61.7274 289.65C62.2632 296.044 57.5121 301.651 51.1534 302.187C44.759 302.723 39.1505 298.008 38.6146 291.614Z" fill="#E9A35D"/>
<path d="M127.458 235.427C125.744 233.891 123.886 232.534 121.85 231.427C120.6 230.748 119.885 229.426 119.921 228.033L120.099 222.104L111.454 220.104L109.025 225.497C108.454 226.783 107.203 227.64 105.775 227.712C103.488 227.819 101.202 228.212 98.9872 228.855C97.6297 229.248 96.165 228.855 95.2005 227.819L91.1638 223.497L83.6263 228.176L85.6982 233.749C86.1984 235.07 85.9126 236.57 84.948 237.606C83.412 239.321 82.0545 241.178 80.9471 243.214C80.2684 244.464 78.9466 245.179 77.5534 245.143L71.6234 244.964L69.6229 253.609L75.0171 256.037C76.3031 256.609 77.1605 257.859 77.2319 259.288C77.3391 261.574 77.732 263.86 78.3393 266.075C78.7323 267.432 78.3393 268.896 77.3034 269.861L72.9809 273.897L77.6606 281.434L83.2333 279.327C84.5551 278.826 86.0197 279.112 87.0914 280.077C88.8061 281.613 90.6637 282.97 92.6999 284.077C93.9502 284.756 94.7004 286.078 94.629 287.471L94.4503 293.4L103.095 295.4L105.524 290.007C106.096 288.721 107.346 287.864 108.775 287.792C111.061 287.685 113.348 287.292 115.563 286.685C116.92 286.292 118.385 286.685 119.349 287.721L123.386 292.043L130.923 287.363L128.852 281.791C128.351 280.47 128.637 278.969 129.602 277.934C131.138 276.219 132.495 274.362 133.603 272.326C134.281 271.075 135.603 270.361 136.996 270.397L142.926 270.575L144.927 261.931L139.533 259.502C138.247 258.931 137.389 257.681 137.318 256.252C137.211 253.966 136.818 251.68 136.21 249.465C135.817 248.108 136.21 246.643 137.246 245.679L141.569 241.642L136.889 234.106L131.316 236.177C129.995 236.642 128.53 236.356 127.458 235.427ZM119.242 276.898C108.668 283.506 94.7361 280.255 88.1274 269.682C81.5187 259.109 84.7694 245.179 95.3434 238.571C105.917 231.963 119.849 235.213 126.458 245.786C133.031 256.395 129.816 270.29 119.242 276.898Z" fill="#F0446F"/>
<path d="M94.5244 265.681C90.1305 258.645 92.2739 249.357 99.347 244.964C106.42 240.57 115.672 242.714 120.066 249.786C124.46 256.823 122.317 266.11 115.244 270.503C108.206 274.897 98.9183 272.754 94.5244 265.681Z" fill="#F0446F"/>
<path d="M377.414 69.153C376.021 70.939 374.878 72.8679 373.949 74.9396C373.378 76.1898 372.163 77.047 370.77 77.1185L364.947 77.4042L363.661 86.0126L369.127 87.9772C370.413 88.4416 371.341 89.6203 371.52 90.9776C371.806 93.228 372.342 95.4069 373.163 97.5143C373.663 98.8002 373.378 100.265 372.449 101.301L368.555 105.587L373.735 112.588L379.022 110.123C380.272 109.552 381.737 109.695 382.844 110.552C384.63 111.945 386.559 113.088 388.631 114.017C389.882 114.588 390.739 115.803 390.81 117.196L391.096 123.018L399.705 124.304L401.67 118.839C402.135 117.553 403.313 116.624 404.671 116.446C406.921 116.16 409.101 115.624 411.208 114.803C412.494 114.302 413.959 114.588 414.995 115.517L419.282 119.446L426.283 114.267L423.818 108.98C423.247 107.73 423.39 106.266 424.247 105.158C425.64 103.372 426.783 101.443 427.712 99.3717C428.284 98.1215 429.498 97.2643 430.892 97.1928L436.714 96.9071L438 88.2987L432.535 86.3341C431.249 85.8698 430.32 84.691 430.141 83.3337C429.856 81.0833 429.32 78.9045 428.498 76.797C427.998 75.5111 428.284 74.0466 429.213 73.0107L433.142 68.7244L427.962 61.7234L422.675 64.188C421.425 64.7595 419.96 64.6167 418.853 63.7594C417.067 62.3663 415.138 61.2233 413.066 60.2946C411.815 59.7231 410.958 58.5086 410.887 57.1156L410.601 51.2933L401.992 50.0074L400.027 55.4725C399.563 56.7584 398.384 57.6871 397.026 57.8657C394.776 58.1514 392.597 58.6872 390.489 59.5088C389.203 60.0088 387.738 59.7231 386.702 58.7944L382.416 54.8652L375.414 60.0446L377.879 65.331C378.415 66.5812 378.272 68.0457 377.414 69.153ZM418.603 73.9752C425.855 83.798 423.783 97.6929 413.959 104.944C404.135 112.195 390.239 110.123 382.987 100.3C375.735 90.4776 377.807 76.5827 387.631 69.3316C397.491 62.0806 411.351 64.1523 418.603 73.9752Z" fill="#E9A35D"/>
<path d="M409.564 99.0146C402.991 103.872 393.774 102.479 388.916 95.907C384.057 89.3346 385.451 80.119 392.024 75.2611C398.597 70.4033 407.813 71.7963 412.672 78.3687C417.53 84.9054 416.137 94.1567 409.564 99.0146Z" fill="#E9A35D"/>
<path d="M289.247 40.2916C288.712 43.1849 288.533 46.1139 288.64 49.0429C288.712 50.8288 287.819 52.5434 286.247 53.4364L279.709 57.1869L283.317 67.9027L290.819 66.9383C292.605 66.724 294.356 67.5098 295.356 68.9743C297.035 71.4033 298.964 73.6179 301.107 75.5824C302.429 76.7969 302.965 78.6543 302.501 80.3689L300.536 87.6199L310.645 92.6564L315.289 86.6912C316.397 85.2624 318.183 84.5837 319.933 84.9052C322.827 85.441 325.756 85.6553 328.686 85.5125C330.472 85.441 332.186 86.334 333.079 87.9057L336.83 94.4423L347.547 90.8347L346.583 83.3336C346.368 81.5476 347.154 79.7973 348.619 78.7972C351.048 77.1541 353.263 75.1895 355.228 73.0464C356.442 71.7247 358.3 71.1889 360.015 71.6533L367.302 73.6179L372.339 63.4735L366.338 58.83C364.909 57.7227 364.23 55.9367 364.551 54.1865C365.087 51.2932 365.302 48.3642 365.159 45.4352C365.087 43.6492 366.016 41.9347 367.552 41.0417L374.089 37.2911L370.481 26.5753L362.98 27.5397C361.193 27.754 359.443 26.9682 358.443 25.5037C356.799 23.0748 354.835 20.8602 352.691 18.8956C351.37 17.6811 350.834 15.8237 351.298 14.1092L353.263 6.82242L343.189 1.78597L338.545 7.75113C337.438 9.17991 335.652 9.85858 333.901 9.5371C331.008 9.00131 328.078 8.78699 325.149 8.92987C323.363 9.00131 321.648 8.10832 320.755 6.53667L317.004 0L306.287 3.60767L307.252 11.1088C307.466 12.8947 306.68 14.645 305.216 15.6451C302.786 17.2882 300.572 19.2528 298.607 21.396C297.392 22.7176 295.535 23.2534 293.82 22.789L286.533 20.8245L281.496 30.9688L287.461 35.6123C288.926 36.7196 289.605 38.5056 289.247 40.2916ZM339.724 21.4674C353.942 28.5399 359.729 45.7924 352.691 60.0087C345.618 74.2251 328.364 80.0117 314.146 72.9749C299.929 65.9025 294.142 48.6499 301.179 34.4336C308.252 20.2172 325.506 14.4307 339.724 21.4674Z" fill="#F0446F"/>
<path d="M344.083 55.7581C339.368 65.2238 327.865 69.1172 318.398 64.4022C308.932 59.6873 305.038 48.1856 309.753 38.7199C314.469 29.2543 325.971 25.3608 335.438 30.0758C344.94 34.7551 348.798 46.2567 344.083 55.7581Z" fill="#F0446F"/>
</svg>
