<svg width="16" height="16" viewBox="0 0 16 16" fill="none" xmlns="http://www.w3.org/2000/svg">
<path fill-rule="evenodd" clip-rule="evenodd" d="M12.4999 6.08595L9.91414 3.50011L11.1132 2.3011C11.5037 1.91057 12.1368 1.91057 12.5274 2.3011L13.6989 3.47267C14.2057 3.97941 13.9278 4.48918 13.6387 4.99164C13.5505 5.14061 13.4999 5.31443 13.4999 5.50006C13.4999 6.05234 13.9477 6.50006 14.4999 6.50006C14.7334 6.50006 15.0069 6.41513 15.1722 6.24037C15.2282 6.18948 15.2784 6.13232 15.3217 6.07001C15.7583 5.5332 16 4.99164 16 4.27737C16 3.37893 15.7106 2.65586 15.1132 2.05846L13.9416 0.886886C13.3619 0.307241 12.7383 0 11.832 0C10.9766 0 10.2909 0.294957 9.69894 0.886885L7.29284 3.29298L7.28017 3.30588L1.25868 9.32716C0.979058 9.60677 0.7886 9.963 0.711377 10.3508L0.0396066 13.5981C0.0133106 13.7302 0 13.8555 0 13.9887C0 15.0586 0.847642 16 2 16C2.17577 16 2.28205 15.988 2.42638 15.9585L5.65677 15.2886C6.04095 15.2102 6.39359 15.0205 6.67085 14.7433L12.4999 8.91437C13.2809 8.13333 13.2809 6.86701 12.4999 6.08595ZM2.67287 10.7414L2 14L5.25665 13.3291L11.0857 7.50014L8.50004 4.91443L2.67287 10.7414Z" fill="#3D75E4"/>
</svg>
