<svg width="370" height="332" viewBox="0 0 370 332" fill="none" xmlns="http://www.w3.org/2000/svg">
<path d="M245.654 154.567L245.376 154.404L213.966 136.227L245.654 117.886L245.933 118.05L277.342 136.227L245.654 154.567ZM216.207 136.227L245.651 153.268L275.098 136.227L245.654 119.185L216.207 136.227Z" fill="#E4EDFB"/>
<path d="M276.221 172.255L275.942 172.092L244.533 153.915L276.221 135.574L307.909 153.915L276.221 172.255ZM246.777 153.918L276.221 170.959L305.665 153.921L276.221 136.879L246.777 153.918Z" fill="#E4EDFB"/>
<path d="M306.788 189.946L275.099 171.605L306.788 153.265L338.476 171.605L306.788 189.946ZM277.343 171.605L306.788 188.647L336.232 171.609L306.788 154.567L277.343 171.605Z" fill="#E4EDFB"/>
<path d="M337.356 207.637L305.668 189.297L337.356 170.956L337.635 171.119L369.044 189.297L337.356 207.637ZM307.909 189.297L337.353 206.338L366.797 189.297L337.353 172.255L307.909 189.297Z" fill="#E4EDFB"/>
<path d="M184.519 154.564L184.241 154.401L152.831 136.224L184.519 117.886L184.798 118.05L216.207 136.227L184.519 154.564ZM155.075 136.224L184.519 153.265L213.963 136.227L184.519 119.185L155.075 136.224Z" fill="#E4EDFB"/>
<path d="M215.088 172.255L183.4 153.915L215.088 135.578L215.366 135.741L246.776 153.918L215.088 172.255ZM185.644 153.915L215.088 170.956L244.532 153.915L215.088 136.873L185.644 153.915Z" fill="#E4EDFB"/>
<path d="M245.654 189.946L245.376 189.783L213.966 171.605L245.654 153.265L245.933 153.428L277.342 171.605L245.654 189.946ZM216.207 171.605L245.651 188.647L275.098 171.605L245.654 154.564L216.207 171.605Z" fill="#E4EDFB"/>
<path d="M276.221 207.637L244.533 189.297L276.221 170.956L307.909 189.297L276.221 207.637ZM246.777 189.297L276.221 206.338L305.665 189.297L276.221 172.255L246.777 189.297Z" fill="#E4EDFB"/>
<path d="M306.788 225.328L306.509 225.165L275.099 206.987L306.788 188.647L338.476 206.987L306.788 225.328ZM277.343 206.987L306.788 224.029L336.232 206.99L306.788 189.949L277.343 206.987Z" fill="#E4EDFB"/>
<path d="M337.356 243.019L337.078 242.856L305.668 224.678L337.356 206.338L337.635 206.501L369.044 224.678L337.356 243.019ZM307.912 224.678L337.356 241.72L366.8 224.682L337.356 207.64L307.912 224.678Z" fill="#E4EDFB"/>
<path d="M123.386 154.564L123.107 154.401L91.6979 136.223L123.386 117.883L123.665 118.046L155.074 136.223L123.386 154.564ZM93.9387 136.223L123.383 153.265L152.827 136.223L123.383 119.182L93.9387 136.223Z" fill="#E4EDFB"/>
<path d="M153.957 172.255L153.678 172.092L122.268 153.915L153.957 135.574L154.235 135.737L185.645 153.915L153.957 172.255ZM124.509 153.915L153.953 170.956L183.401 153.915L153.957 136.873L124.509 153.915Z" fill="#E4EDFB"/>
<path d="M184.525 189.946L184.246 189.783L152.837 171.605L184.525 153.265L216.213 171.605L184.525 189.946ZM155.078 171.605L184.522 188.647L213.966 171.609L184.522 154.564L155.078 171.605Z" fill="#E4EDFB"/>
<path d="M215.088 207.637L183.4 189.297L215.088 170.959L215.366 171.123L246.776 189.3L215.088 207.637ZM185.644 189.297L215.088 206.338L244.532 189.297L215.088 172.255L185.644 189.297Z" fill="#E4EDFB"/>
<path d="M245.654 225.328L213.966 206.987L245.654 188.647L277.342 206.987L245.654 225.328ZM216.21 206.987L245.654 224.029L275.098 206.987L245.654 189.946L216.21 206.987Z" fill="#E4EDFB"/>
<path d="M276.223 243.019L275.944 242.856L244.535 224.678L276.223 206.338L276.501 206.501L307.911 224.678L276.223 243.019ZM246.776 224.678L276.22 241.72L305.664 224.678L276.22 207.637L246.776 224.678Z" fill="#E4EDFB"/>
<path d="M306.791 260.707L306.512 260.544L275.099 242.37L306.788 224.029L307.066 224.192L338.476 242.37L306.791 260.707ZM277.343 242.37L306.788 259.411L336.232 242.37L306.788 225.328L277.343 242.37Z" fill="#E4EDFB"/>
<path d="M337.356 278.397L337.078 278.234L305.668 260.057L337.356 241.717L369.044 260.057L337.356 278.397ZM307.912 260.057L337.356 277.099L366.8 260.06L337.356 243.019L307.912 260.057Z" fill="#E4EDFB"/>
<path d="M92.8212 172.255L61.1332 153.915L92.8212 135.578L93.0998 135.741L124.509 153.918L92.8212 172.255ZM63.3772 153.915L92.8212 170.956L122.265 153.915L92.8212 136.873L63.3772 153.915Z" fill="#E4EDFB"/>
<path d="M123.386 189.946L123.107 189.783L91.6979 171.605L123.386 153.265L123.665 153.428L155.074 171.605L123.386 189.946ZM93.9419 171.605L123.386 188.647L152.83 171.605L123.386 154.564L93.9419 171.605Z" fill="#E4EDFB"/>
<path d="M153.957 207.637L153.678 207.474L122.268 189.297L153.957 170.956L154.235 171.119L185.645 189.297L153.957 207.637ZM124.512 189.297L153.957 206.338L183.401 189.297L153.957 172.255L124.512 189.297Z" fill="#E4EDFB"/>
<path d="M184.525 225.325L184.246 225.161L152.837 206.987L184.525 188.647L216.213 206.987L184.525 225.325ZM155.078 206.987L184.522 224.029L213.966 206.99L184.522 189.949L155.078 206.987Z" fill="#E4EDFB"/>
<path d="M215.091 243.016L214.812 242.853L183.4 224.675L215.088 206.338L246.776 224.678L215.091 243.016ZM185.644 224.675L215.088 241.717L244.532 224.678L215.088 207.637L185.644 224.675Z" fill="#E4EDFB"/>
<path d="M245.654 260.707L213.966 242.366L245.654 224.029L245.933 224.192L277.342 242.37L245.654 260.707ZM216.21 242.366L245.654 259.408L275.098 242.366L245.654 225.325L216.21 242.366Z" fill="#E4EDFB"/>
<path d="M276.223 278.397L275.944 278.234L244.535 260.057L276.223 241.717L276.501 241.88L307.911 260.057L276.223 278.397ZM246.779 260.057L276.223 277.099L305.667 260.057L276.223 243.016L246.779 260.057Z" fill="#E4EDFB"/>
<path d="M306.791 296.088L306.513 295.925L275.103 277.748L306.791 259.408L307.07 259.571L338.479 277.748L306.791 296.088ZM277.344 277.748L306.788 294.79L336.232 277.748L306.788 260.707L277.344 277.748Z" fill="#E4EDFB"/>
<path d="M62.2567 189.946L61.9781 189.783L30.5686 171.605L62.2567 153.265L93.9448 171.605L62.2567 189.946ZM32.8095 171.605L62.2535 188.647L91.7008 171.605L62.2535 154.564L32.8095 171.605Z" fill="#E4EDFB"/>
<path d="M92.8232 207.637L61.1351 189.297L92.8232 170.959L93.1018 171.123L124.511 189.3L92.8232 207.637ZM63.376 189.297L92.8201 206.338L122.264 189.297L92.8201 172.255L63.376 189.297Z" fill="#E4EDFB"/>
<path d="M123.386 225.325L123.107 225.161L91.6979 206.987L123.386 188.647L123.665 188.81L155.074 206.987L123.386 225.325ZM93.9419 206.987L123.386 224.029L152.83 206.987L123.386 189.946L93.9419 206.987Z" fill="#E4EDFB"/>
<path d="M153.957 243.015L153.678 242.852L122.268 224.675L153.957 206.335L154.235 206.498L185.645 224.675L153.957 243.015ZM124.512 224.675L153.957 241.717L183.401 224.675L153.957 207.634L124.512 224.675Z" fill="#E4EDFB"/>
<path d="M184.525 260.707L184.246 260.543L152.837 242.366L184.525 224.026L184.804 224.189L216.213 242.366L184.525 260.707ZM155.081 242.366L184.525 259.408L213.969 242.366L184.525 225.325L155.081 242.366Z" fill="#E4EDFB"/>
<path d="M215.092 278.397L183.404 260.057L215.092 241.717L246.78 260.057L215.092 278.397ZM185.648 260.057L215.092 277.099L244.536 260.06L215.092 243.019L185.648 260.057Z" fill="#E4EDFB"/>
<path d="M245.66 296.088L213.972 277.748L245.66 259.411L245.939 259.574L277.348 277.751L245.66 296.088ZM216.213 277.748L245.657 294.789L275.101 277.748L245.657 260.706L216.213 277.748Z" fill="#E4EDFB"/>
<path d="M276.223 313.779L275.944 313.616L244.535 295.439L276.223 277.098L276.501 277.261L307.911 295.439L276.223 313.779ZM246.779 295.439L276.223 312.48L305.667 295.439L276.223 278.397L246.779 295.439Z" fill="#E4EDFB"/>
<path d="M31.6881 207.634L31.4095 207.471L0 189.297L31.6881 170.956L31.9666 171.119L63.3762 189.297L31.6881 207.634ZM2.24399 189.297L31.6881 206.338L61.1322 189.297L31.6881 172.255L2.24399 189.297Z" fill="#E4EDFB"/>
<path d="M62.2567 225.325L61.9781 225.161L30.5686 206.984L62.2567 188.644L93.9448 206.984L62.2567 225.325ZM32.8126 206.984L62.2567 224.026L91.7008 206.987L62.2567 189.946L32.8126 206.984Z" fill="#E4EDFB"/>
<path d="M92.8232 243.016L92.5447 242.853L61.1351 224.675L92.8232 206.338L93.1018 206.501L124.511 224.678L92.8232 243.016ZM63.3791 224.675L92.8232 241.717L122.267 224.678L92.8232 207.637L63.3791 224.675Z" fill="#E4EDFB"/>
<path d="M123.392 260.707L91.7037 242.366L123.392 224.026L123.67 224.189L155.08 242.366L123.392 260.707ZM93.9446 242.366L123.389 259.408L152.833 242.366L123.389 225.325L93.9446 242.366Z" fill="#E4EDFB"/>
<path d="M153.958 278.397L153.68 278.234L122.27 260.057L153.958 241.717L154.237 241.88L185.646 260.057L153.958 278.397ZM124.511 260.057L153.955 277.099L183.399 260.057L153.955 243.016L124.511 260.057Z" fill="#E4EDFB"/>
<path d="M184.525 296.088L152.837 277.748L184.525 259.408L216.213 277.748L184.525 296.088ZM155.081 277.748L184.525 294.79L213.969 277.748L184.525 260.707L155.081 277.748Z" fill="#E4EDFB"/>
<path d="M215.092 313.776L214.813 313.613L183.404 295.436L215.092 277.095L246.78 295.436L215.092 313.776ZM185.648 295.439L215.092 312.48L244.536 295.442L215.092 278.401L185.648 295.439Z" fill="#E4EDFB"/>
<path d="M245.66 331.467L245.382 331.304L213.972 313.127L245.66 294.786L245.939 294.95L277.348 313.127L245.66 331.467ZM216.213 313.127L245.657 330.168L275.101 313.13L245.657 296.088L216.213 313.127Z" fill="#E4EDFB"/>
<path d="M31.6912 243.015L31.4127 242.852L0 224.675L31.6881 206.335L31.9666 206.498L63.3762 224.675L31.6912 243.015ZM2.24399 224.675L31.6881 241.717L61.1322 224.675L31.6881 207.634L2.24399 224.675Z" fill="#E4EDFB"/>
<path d="M62.2567 260.707L61.9781 260.543L30.5686 242.366L62.2567 224.026L62.5352 224.189L93.9448 242.366L62.2567 260.707ZM32.8126 242.366L62.2567 259.408L91.7008 242.366L62.2567 225.325L32.8126 242.366Z" fill="#E4EDFB"/>
<path d="M92.8232 278.397L92.5447 278.234L61.1351 260.057L92.8232 241.717L124.511 260.057L92.8232 278.397ZM63.3791 260.057L92.8232 277.099L122.267 260.06L92.8232 243.019L63.3791 260.057Z" fill="#E4EDFB"/>
<path d="M123.392 296.085L123.113 295.922L91.7037 277.745L123.392 259.405L123.67 259.568L155.08 277.745L123.392 296.085ZM93.9477 277.748L123.392 294.79L152.836 277.751L123.392 260.71L93.9477 277.748Z" fill="#E4EDFB"/>
<path d="M153.958 313.776L122.27 295.435L153.958 277.098L185.646 295.439L153.958 313.776ZM124.514 295.435L153.958 312.477L183.402 295.435L153.958 278.394L124.514 295.435Z" fill="#E4EDFB"/>
<path d="M184.525 331.467L152.837 313.127L184.525 294.786L184.804 294.95L216.213 313.127L184.525 331.467ZM155.081 313.127L184.525 330.168L213.969 313.127L184.525 296.085L155.081 313.127Z" fill="#E4EDFB"/>
<path d="M31.69 278.397L31.4115 278.234L0.00195312 260.057L31.69 241.717L31.9686 241.88L63.3781 260.057L31.69 278.397ZM2.24281 260.057L31.6869 277.099L61.131 260.057L31.6869 243.016L2.24281 260.057Z" fill="#E4EDFB"/>
<path d="M62.2586 296.085L61.9801 295.922L30.5706 277.745L62.2586 259.405L62.5372 259.568L93.9467 277.745L62.2586 296.085ZM32.8114 277.748L62.2555 294.79L91.6996 277.748L62.2555 260.706L32.8114 277.748Z" fill="#E4EDFB"/>
<path d="M92.8271 313.776L92.5486 313.613L61.139 295.436L92.8271 277.095L93.1057 277.259L124.515 295.436L92.8271 313.776ZM63.3799 295.436L92.824 312.477L122.268 295.436L92.824 278.394L63.3799 295.436Z" fill="#E4EDFB"/>
<path d="M123.392 331.467L123.113 331.304L91.7037 313.127L123.392 294.786L155.08 313.127L123.392 331.467ZM93.9477 313.127L123.392 330.168L152.836 313.13L123.392 296.088L93.9477 313.127Z" fill="#E4EDFB"/>
<path d="M230.056 26.2793L230.021 39.1042C230.061 46.1235 225.39 52.7241 216.869 57.687C208.348 62.65 196.997 65.3835 184.909 65.3835C172.82 65.3835 161.437 62.65 152.861 57.687C144.285 52.7241 139.54 46.1235 139.5 39.1042L139.535 26.2793C139.572 33.2986 144.318 39.8967 152.894 44.8621C161.47 49.8251 172.85 52.5586 184.941 52.5586C197.03 52.5586 208.38 49.8251 216.901 44.8621C225.425 39.8992 230.096 33.2986 230.056 26.2793Z" fill="#C0D6F6"/>
<path fill-rule="evenodd" clip-rule="evenodd" d="M128.053 59.1717C128.044 59.1748 128.035 59.1779 128.025 59.1817C128.008 59.1872 127.992 59.1932 127.976 59.1991C127.955 59.2065 127.935 59.2137 127.917 59.2193C127.91 59.2231 127.901 59.2262 127.893 59.2294C127.885 59.2325 127.877 59.2356 127.87 59.2394C127.819 59.262 127.769 59.287 127.722 59.3146L149.129 46.8433C149.177 46.8157 149.227 46.7906 149.277 46.7681C149.285 46.7643 149.293 46.7612 149.301 46.758C149.309 46.7549 149.317 46.7518 149.325 46.748L149.325 46.748C149.36 46.733 149.395 46.7179 149.432 46.7054C149.437 46.7037 149.441 46.7021 149.445 46.7005C149.46 46.6947 149.474 46.6892 149.49 46.6853C149.527 46.6728 149.565 46.6627 149.602 46.6527C149.62 46.6502 149.64 46.6452 149.657 46.6402C149.707 46.6276 149.757 46.6201 149.807 46.6126L149.807 46.6126C149.811 46.6126 149.814 46.612 149.817 46.6113C149.821 46.6107 149.824 46.6101 149.827 46.6101H149.832C149.837 46.6076 149.842 46.6076 149.847 46.6076C149.888 46.6026 149.93 46.6001 149.973 46.5975C149.988 46.595 150 46.595 150.015 46.595H150.015C150.053 46.5925 150.093 46.5925 150.13 46.5925H150.163L150.295 46.6001C150.298 46.6026 150.303 46.6026 150.305 46.6026C150.365 46.6076 150.428 46.6151 150.49 46.6251C150.495 46.6276 150.503 46.6301 150.51 46.6301C150.568 46.6402 150.623 46.6502 150.681 46.6628C150.683 46.6628 150.686 46.6634 150.688 46.664C150.691 46.6646 150.693 46.6653 150.696 46.6653C150.709 46.6682 150.722 46.672 150.735 46.6756C150.744 46.6782 150.752 46.6807 150.761 46.6828C150.778 46.6878 150.795 46.6922 150.812 46.6966C150.829 46.701 150.846 46.7054 150.863 46.7104C150.891 46.7179 150.918 46.7254 150.946 46.7355C150.981 46.7455 151.013 46.7555 151.048 46.7681C151.052 46.7693 151.056 46.7706 151.061 46.7718C151.065 46.7731 151.07 46.7743 151.073 46.7756C151.081 46.7784 151.089 46.7816 151.097 46.7848C151.11 46.7903 151.124 46.796 151.138 46.8007C151.171 46.8107 151.201 46.8232 151.231 46.8358C151.263 46.8483 151.294 46.8609 151.326 46.8759C151.341 46.8834 151.357 46.8903 151.372 46.8972C151.388 46.9041 151.404 46.911 151.419 46.9185C151.424 46.9211 151.428 46.9229 151.432 46.9248C151.437 46.9267 151.441 46.9286 151.446 46.9311L151.536 46.9762C151.546 46.9812 151.556 46.9863 151.565 46.9913C151.574 46.9963 151.584 47.0013 151.594 47.0063C151.654 47.0364 151.714 47.069 151.774 47.1041L130.366 59.5754C130.346 59.5646 130.326 59.5534 130.306 59.5423C130.266 59.52 130.226 59.4977 130.186 59.4776C130.176 59.4726 130.167 59.4676 130.157 59.4626C130.148 59.4576 130.139 59.4526 130.129 59.4475C130.119 59.4425 130.109 59.4374 130.099 59.4324C130.07 59.4175 130.041 59.403 130.011 59.3899C129.981 59.3748 129.948 59.3598 129.918 59.3472C129.898 59.3392 129.877 59.3302 129.857 59.3214C129.845 59.3165 129.834 59.3116 129.823 59.3071C129.811 59.3022 129.799 59.2977 129.787 59.2933C129.768 59.2864 129.749 59.2797 129.731 59.272C129.722 59.2684 129.713 59.2649 129.704 59.2614C129.681 59.2526 129.66 59.2441 129.638 59.2369C129.621 59.2319 129.604 59.2262 129.587 59.2206C129.57 59.2149 129.553 59.2093 129.536 59.2043C129.522 59.2005 129.508 59.1961 129.494 59.1917C129.481 59.1873 129.467 59.183 129.453 59.1792C129.447 59.1774 129.44 59.1755 129.434 59.1737C129.406 59.1656 129.379 59.1578 129.351 59.1516C129.326 59.1441 129.298 59.1366 129.273 59.1315C129.224 59.1209 129.176 59.1121 129.128 59.1036C129.12 59.102 129.111 59.1005 129.103 59.099C129.099 59.099 129.096 59.0983 129.093 59.0977C129.09 59.0971 129.087 59.0964 129.083 59.0964C129.02 59.0864 128.958 59.0789 128.898 59.0739C128.88 59.073 128.863 59.0718 128.846 59.0707C128.815 59.0685 128.784 59.0663 128.753 59.0663H128.72H128.72C128.683 59.0663 128.643 59.0663 128.605 59.0689C128.597 59.0689 128.589 59.0695 128.582 59.0702C128.575 59.0708 128.568 59.0714 128.563 59.0714L128.562 59.0714C128.52 59.0739 128.477 59.0764 128.437 59.0814C128.432 59.0839 128.427 59.0839 128.422 59.0839C128.415 59.0864 128.407 59.0889 128.4 59.0889C128.354 59.0955 128.312 59.104 128.269 59.1127C128.262 59.114 128.256 59.1152 128.25 59.1165C128.23 59.119 128.212 59.124 128.195 59.129L128.195 59.129C128.157 59.1391 128.12 59.1491 128.082 59.1616C128.072 59.1654 128.063 59.1685 128.053 59.1717ZM155.472 53.7323C155.472 53.7523 155.471 53.7724 155.47 53.7924L155.47 53.7925C155.467 53.8251 155.465 53.8577 155.457 53.8978C155.455 53.9379 155.452 53.9755 155.447 54.0131C155.447 54.0231 155.447 54.0357 155.445 54.0482C155.443 54.0626 155.441 54.0752 155.439 54.089C155.438 54.092 155.438 54.0952 155.437 54.0984C155.434 54.1195 155.431 54.1406 155.428 54.1614C155.424 54.1852 155.421 54.2086 155.417 54.2313L155.402 54.3141C155.395 54.3567 155.387 54.3968 155.377 54.4394C155.375 54.457 155.372 54.472 155.367 54.4896C155.366 54.4959 155.364 54.5015 155.362 54.5072C155.36 54.5128 155.358 54.5184 155.357 54.5247C155.355 54.5323 155.353 54.5394 155.352 54.5463C155.349 54.5553 155.347 54.5638 155.345 54.5724C155.335 54.615 155.322 54.6551 155.31 54.6952C155.308 54.7015 155.306 54.7072 155.305 54.7128C155.303 54.7184 155.301 54.7241 155.3 54.7303C155.282 54.7805 155.265 54.8282 155.247 54.8758C155.245 54.8807 155.243 54.8853 155.242 54.8896C155.24 54.8963 155.238 54.9023 155.235 54.9084C155.227 54.931 155.217 54.956 155.207 54.9786L155.192 55.0087C155.186 55.0225 155.179 55.0363 155.172 55.0501C155.165 55.0639 155.158 55.0777 155.152 55.0915C155.148 55.1 155.144 55.1083 155.14 55.1164C155.132 55.132 155.125 55.1468 155.117 55.1617C155.109 55.1742 155.102 55.1874 155.094 55.2006C155.087 55.2137 155.079 55.2269 155.072 55.2394C155.059 55.262 155.047 55.2846 155.034 55.3046C155.026 55.3172 155.017 55.3291 155.009 55.341C155.001 55.3529 154.993 55.3648 154.984 55.3774C154.979 55.3844 154.974 55.3919 154.969 55.3997C154.961 55.4111 154.953 55.4231 154.944 55.435C154.936 55.4463 154.926 55.4576 154.917 55.4689C154.907 55.4802 154.898 55.4915 154.889 55.5028C154.877 55.5203 154.862 55.5379 154.847 55.5554C154.827 55.578 154.807 55.6006 154.787 55.6206C154.779 55.6281 154.772 55.6363 154.764 55.6444C154.757 55.6526 154.749 55.6607 154.742 55.6683L154.674 55.7285C154.667 55.7347 154.659 55.7416 154.652 55.7485C154.644 55.7554 154.637 55.7623 154.629 55.7686C154.615 55.7786 154.602 55.7886 154.589 55.7987C154.576 55.8087 154.563 55.8187 154.549 55.8288C154.534 55.8388 154.522 55.8488 154.509 55.8588L154.509 55.8589C154.469 55.8864 154.426 55.914 154.384 55.9391L132.976 68.4104C133.019 68.3853 133.061 68.3578 133.101 68.3302C133.116 68.3201 133.129 68.3101 133.141 68.3001C133.149 68.2947 133.156 68.2894 133.164 68.2842C133.184 68.2702 133.203 68.2564 133.222 68.2399C133.229 68.2336 133.237 68.2267 133.244 68.2198C133.252 68.2129 133.259 68.206 133.267 68.1998C133.289 68.1797 133.312 68.1596 133.334 68.1371C133.342 68.1296 133.349 68.1214 133.357 68.1133C133.364 68.1051 133.372 68.0969 133.379 68.0894C133.389 68.0781 133.399 68.0675 133.409 68.0568C133.419 68.0462 133.429 68.0355 133.439 68.0242C133.447 68.0154 133.454 68.0067 133.46 67.9979C133.467 67.9891 133.474 67.9803 133.482 67.9716C133.501 67.9468 133.519 67.9245 133.536 67.9022L133.537 67.9013C133.539 67.8975 133.542 67.8936 133.545 67.8896C133.556 67.8751 133.567 67.8594 133.577 67.8437C133.594 67.8211 133.612 67.796 133.627 67.7709C133.639 67.7509 133.652 67.7308 133.664 67.7082C133.679 67.6832 133.694 67.6581 133.709 67.6305C133.716 67.6192 133.721 67.6079 133.727 67.5966C133.733 67.5854 133.738 67.5741 133.744 67.5628C133.759 67.5352 133.772 67.5076 133.784 67.48L133.784 67.48C133.799 67.4474 133.814 67.4148 133.827 67.3797C133.829 67.3748 133.83 67.3702 133.832 67.3659C133.834 67.3593 133.836 67.3532 133.839 67.3471C133.859 67.2995 133.877 67.2518 133.892 67.2017C133.893 67.1954 133.895 67.1897 133.897 67.1841C133.899 67.1785 133.901 67.1728 133.902 67.1665C133.915 67.1264 133.927 67.0863 133.937 67.0437C133.939 67.0361 133.941 67.029 133.943 67.0221C133.945 67.0131 133.947 67.0046 133.95 66.996C133.953 66.9822 133.956 66.9678 133.96 66.9534C133.963 66.939 133.966 66.9245 133.97 66.9108C133.973 66.893 133.977 66.8748 133.981 66.8564C133.985 66.833 133.99 66.8092 133.995 66.7854L134.01 66.7026C134.011 66.697 134.011 66.6914 134.012 66.6858C134.019 66.6468 134.025 66.6092 134.03 66.5697C134.031 66.5546 134.033 66.5402 134.035 66.5258C134.036 66.5114 134.038 66.497 134.04 66.4819C134.044 66.4465 134.047 66.4088 134.049 66.3731L134.05 66.3666L134.057 66.2688C134.06 66.2286 134.062 66.1885 134.062 66.1484C134.062 66.1274 134.063 66.1064 134.063 66.085C134.064 66.0631 134.065 66.0409 134.065 66.018C134.065 65.9478 134.062 65.8775 134.06 65.8073C134.06 65.7945 134.059 65.7822 134.058 65.7704C134.058 65.7591 134.057 65.7481 134.057 65.7371L134.05 65.5967C134.048 65.5779 134.046 65.5584 134.045 65.539C134.043 65.5195 134.041 65.5001 134.04 65.4813C134.037 65.4625 134.035 65.4437 134.033 65.4249C134.031 65.4061 134.03 65.3873 134.027 65.3685C134.025 65.3496 134.022 65.3302 134.02 65.3108C134.017 65.2913 134.015 65.2719 134.012 65.2531L133.997 65.1402L133.975 65.0048C133.97 64.9697 133.965 64.9371 133.957 64.902C133.952 64.8782 133.947 64.855 133.942 64.8318C133.937 64.8086 133.932 64.7854 133.927 64.7616C133.922 64.729 133.915 64.6965 133.907 64.664L133.907 64.6638L133.907 64.6636C133.887 64.5784 133.867 64.4932 133.844 64.408C133.842 64.4004 133.839 64.3904 133.837 64.3804C133.817 64.3027 133.794 64.2275 133.772 64.1523L133.772 64.1522C133.768 64.1342 133.762 64.1178 133.756 64.1004C133.755 64.096 133.753 64.0915 133.752 64.087C133.727 64.0042 133.699 63.9189 133.669 63.8362C133.662 63.8111 133.654 63.786 133.644 63.761C133.609 63.6606 133.572 63.5603 133.532 63.4625C133.511 63.4086 133.488 63.3562 133.465 63.3029C133.458 63.2868 133.451 63.2707 133.444 63.2544C133.442 63.2481 133.439 63.2418 133.435 63.2356C133.432 63.2293 133.429 63.223 133.427 63.2168C133.402 63.1591 133.377 63.1014 133.349 63.0437C133.343 63.0312 133.337 63.0193 133.332 63.0074C133.326 62.9954 133.32 62.9835 133.314 62.971C133.303 62.9484 133.292 62.9252 133.28 62.902C133.269 62.8788 133.258 62.8556 133.247 62.8331C133.24 62.8205 133.233 62.8074 133.227 62.7942C133.22 62.781 133.213 62.7679 133.207 62.7553C133.195 62.7328 133.183 62.7108 133.171 62.6889C133.16 62.6669 133.148 62.645 133.136 62.6224C133.13 62.6099 133.123 62.5973 133.116 62.5848C133.11 62.5723 133.103 62.5597 133.096 62.5472C133.083 62.5234 133.069 62.4989 133.055 62.4745C133.041 62.45 133.028 62.4256 133.014 62.4017C133.009 62.3917 133.003 62.3823 132.998 62.3729C132.992 62.3635 132.986 62.3541 132.981 62.344C132.941 62.2763 132.901 62.2086 132.861 62.1434C132.858 62.1371 132.854 62.1315 132.85 62.1259C132.846 62.1202 132.843 62.1146 132.839 62.1083C132.821 62.082 132.804 62.055 132.787 62.0281C132.771 62.0011 132.754 61.9741 132.736 61.9478L132.691 61.8801L132.691 61.8801C132.664 61.8375 132.636 61.7948 132.606 61.7522C132.6 61.7428 132.593 61.7334 132.587 61.7241C132.577 61.7086 132.567 61.6936 132.556 61.6795C132.549 61.6697 132.542 61.6601 132.536 61.6506C132.513 61.6185 132.492 61.5875 132.468 61.5566C132.46 61.5453 132.452 61.534 132.443 61.5227C132.435 61.5115 132.427 61.5002 132.418 61.4889C132.392 61.4523 132.364 61.4157 132.337 61.3805C132.331 61.3723 132.325 61.3641 132.318 61.356C132.312 61.3472 132.305 61.3384 132.298 61.3296C132.291 61.3209 132.285 61.3121 132.278 61.3033C132.237 61.2479 132.191 61.1924 132.147 61.139L132.136 61.1253C132.131 61.1202 132.126 61.1146 132.122 61.109C132.118 61.1033 132.113 61.0977 132.108 61.0926C132.088 61.0688 132.068 61.0456 132.048 61.0224C132.028 60.9992 132.008 60.976 131.988 60.9522C131.979 60.9422 131.971 60.9328 131.962 60.9234C131.953 60.914 131.944 60.9046 131.936 60.8945C131.903 60.8569 131.871 60.8218 131.836 60.7842C131.818 60.7616 131.798 60.7416 131.778 60.7215L131.778 60.7215C131.765 60.709 131.753 60.6958 131.74 60.6826C131.728 60.6695 131.715 60.6563 131.703 60.6438L131.703 60.6434C131.638 60.5783 131.575 60.5157 131.51 60.4532C131.498 60.4431 131.488 60.4331 131.478 60.4231C131.403 60.3528 131.328 60.2851 131.253 60.2199C131.24 60.2099 131.228 60.1999 131.216 60.1898C131.204 60.1798 131.193 60.1698 131.18 60.1597C131.14 60.1247 131.1 60.0921 131.06 60.0596L131.06 60.0594C131.032 60.0369 131.007 60.0168 130.98 59.9967C130.952 59.9739 130.923 59.9522 130.894 59.9309C130.881 59.9219 130.869 59.9129 130.857 59.9039C130.832 59.8864 130.805 59.8663 130.777 59.8463C130.77 59.841 130.762 59.8356 130.754 59.8301C130.728 59.8121 130.702 59.7934 130.675 59.7761L130.585 59.7159C130.567 59.7046 130.55 59.6939 130.532 59.6833C130.515 59.6726 130.497 59.6619 130.48 59.6507C130.465 59.6421 130.451 59.6331 130.437 59.6241C130.413 59.6094 130.389 59.5944 130.365 59.5804L151.772 47.1091C151.787 47.1191 151.805 47.1292 151.822 47.1392L151.822 47.1392C151.833 47.1455 151.844 47.1524 151.855 47.1593C151.865 47.1662 151.876 47.1731 151.887 47.1793C151.922 47.1994 151.957 47.222 151.992 47.2446L152.082 47.3047C152.095 47.3138 152.109 47.3229 152.123 47.3321C152.143 47.3459 152.164 47.36 152.185 47.375C152.19 47.3787 152.196 47.3825 152.201 47.3862C152.207 47.39 152.212 47.3938 152.217 47.3975C152.226 47.4038 152.234 47.4101 152.242 47.4163C152.251 47.4226 152.259 47.4289 152.267 47.4351C152.279 47.4441 152.291 47.453 152.304 47.4621C152.333 47.4834 152.362 47.505 152.39 47.5279C152.404 47.538 152.417 47.5486 152.43 47.5593C152.443 47.5699 152.456 47.5806 152.47 47.5906C152.49 47.6069 152.51 47.6239 152.53 47.6408C152.55 47.6577 152.57 47.6746 152.59 47.6909C152.601 47.7014 152.612 47.7106 152.623 47.7195C152.628 47.7234 152.633 47.7272 152.638 47.7311C152.645 47.7361 152.653 47.7436 152.66 47.7511C152.735 47.8163 152.81 47.884 152.885 47.9543C152.898 47.9643 152.908 47.9743 152.918 47.9843L152.918 47.9844L152.918 47.9845C152.983 48.0472 153.048 48.1098 153.111 48.1749L153.141 48.205C153.148 48.2126 153.156 48.2207 153.163 48.2289C153.171 48.237 153.178 48.2452 153.186 48.2527L153.192 48.2594C153.209 48.2793 153.225 48.2973 153.243 48.3154L153.25 48.3224C153.28 48.3554 153.313 48.3906 153.343 48.4257C153.361 48.4433 153.378 48.4633 153.396 48.4834C153.436 48.5285 153.476 48.5762 153.516 48.6238C153.518 48.626 153.519 48.6281 153.521 48.6301C153.528 48.6399 153.535 48.6481 153.543 48.6564C153.591 48.7141 153.638 48.7743 153.686 48.8345C153.692 48.8433 153.699 48.8521 153.706 48.8608C153.713 48.8696 153.72 48.8784 153.726 48.8872C153.742 48.9097 153.759 48.9317 153.776 48.9536C153.793 48.9756 153.81 48.9975 153.826 49.0201C153.835 49.0314 153.843 49.0426 153.851 49.0539C153.859 49.0652 153.867 49.0765 153.876 49.0878C153.891 49.1079 153.905 49.1285 153.92 49.1492C153.934 49.1699 153.949 49.1906 153.964 49.2107C153.977 49.2279 153.989 49.2452 154.002 49.2636C154.006 49.2692 154.01 49.275 154.014 49.2809C154.044 49.3235 154.074 49.3662 154.101 49.4088C154.114 49.4288 154.129 49.4513 154.144 49.4738L154.144 49.474C154.154 49.4895 154.163 49.5049 154.173 49.5201C154.198 49.559 154.223 49.5974 154.246 49.637C154.25 49.6433 154.254 49.6489 154.258 49.6545C154.261 49.6602 154.265 49.6658 154.269 49.6721C154.302 49.7245 154.332 49.7754 154.362 49.8271C154.371 49.8422 154.38 49.8574 154.389 49.8727C154.394 49.8828 154.4 49.8922 154.405 49.9016C154.411 49.911 154.416 49.9204 154.421 49.9304C154.435 49.9555 154.449 49.9799 154.463 50.0044C154.476 50.0288 154.49 50.0533 154.504 50.0784C154.51 50.0909 154.517 50.1034 154.524 50.116C154.531 50.1285 154.538 50.1411 154.544 50.1536C154.555 50.1762 154.567 50.1987 154.579 50.2213C154.591 50.2439 154.603 50.2665 154.614 50.289C154.625 50.3079 154.635 50.3282 154.645 50.3478C154.648 50.3542 154.651 50.3606 154.654 50.3668L154.654 50.3675C154.677 50.4124 154.699 50.4573 154.722 50.5047C154.725 50.511 154.728 50.5172 154.731 50.5233C154.74 50.5414 154.749 50.5587 154.757 50.5774L154.757 50.5775C154.784 50.6352 154.812 50.6928 154.837 50.7505C154.844 50.763 154.849 50.7755 154.854 50.7881L154.854 50.7881C154.882 50.8558 154.909 50.921 154.937 50.9862C154.938 50.9874 154.939 50.9893 154.939 50.9912C154.94 50.9931 154.941 50.995 154.942 50.9962C154.982 51.0965 155.019 51.1943 155.054 51.2947L155.054 51.2948C155.064 51.3198 155.074 51.3448 155.082 51.3699C155.093 51.4041 155.104 51.4379 155.116 51.4714C155.133 51.5215 155.149 51.5711 155.164 51.6207C155.169 51.6332 155.174 51.6482 155.179 51.6632L155.179 51.6633C155.179 51.6683 155.182 51.6758 155.184 51.6833L155.184 51.6834C155.19 51.7009 155.195 51.7183 155.2 51.7357C155.217 51.7951 155.234 51.8533 155.25 51.9116C155.251 51.9166 155.252 51.921 155.253 51.9254C155.255 51.9298 155.256 51.9341 155.257 51.9392C155.28 52.0244 155.3 52.1097 155.32 52.1949L155.32 52.195C155.322 52.2 155.325 52.205 155.325 52.21C155.332 52.2376 155.337 52.2652 155.342 52.2928C155.35 52.3379 155.36 52.3856 155.37 52.4307C155.372 52.4454 155.375 52.4605 155.377 52.476C155.381 52.4949 155.384 52.5142 155.387 52.5335C155.395 52.5761 155.402 52.6213 155.41 52.6664C155.411 52.6714 155.412 52.6765 155.412 52.6815C155.413 52.6865 155.413 52.6915 155.415 52.6965C155.417 52.7241 155.42 52.7517 155.425 52.7793C155.427 52.798 155.43 52.8174 155.432 52.8368C155.435 52.8563 155.437 52.8758 155.44 52.8946C155.445 52.9323 155.45 52.9699 155.452 53.0075C155.453 53.0285 155.455 53.0488 155.457 53.0688C155.459 53.087 155.461 53.1049 155.462 53.1228C155.462 53.1279 155.463 53.1329 155.463 53.1379C155.464 53.1429 155.465 53.1479 155.465 53.1529C155.466 53.1717 155.467 53.1899 155.467 53.2081C155.468 53.2263 155.468 53.2445 155.47 53.2633C155.47 53.2746 155.47 53.2859 155.471 53.2971C155.472 53.3084 155.472 53.3197 155.472 53.331C155.475 53.4012 155.477 53.4714 155.477 53.5416V53.5993C155.477 53.6119 155.477 53.6238 155.476 53.6357C155.475 53.6476 155.475 53.6595 155.475 53.6721C155.473 53.6921 155.473 53.7122 155.472 53.7323Z" fill="#81ABEE"/>
<path d="M130.364 59.5805C132.418 60.7692 134.077 63.6482 134.069 66.0131C134.062 68.3779 132.393 69.3309 130.339 68.1422C128.285 66.9535 126.627 64.0745 126.634 61.7097C126.642 59.3473 128.31 58.3918 130.364 59.5805Z" fill="#3D75E4"/>
<path d="M213.865 26.3621L213.83 39.187C213.843 34.8359 210.983 30.4774 205.259 27.162C193.884 20.5791 175.436 20.5791 164.133 27.162C158.519 30.4322 155.707 34.7231 155.694 39.0189L155.729 26.194C155.742 21.8982 158.551 17.6073 164.168 14.3371C175.471 7.75416 193.919 7.75416 205.294 14.3371C211.018 17.6525 213.878 22.011 213.865 26.3621Z" fill="#81ABEE"/>
<path d="M230.056 26.2793C230.096 33.2986 225.425 39.8992 216.904 44.8621C208.383 49.825 197.033 52.5586 184.944 52.5586C172.856 52.5586 161.473 49.825 152.897 44.8621C144.321 39.8992 139.575 33.2986 139.537 26.2793C139.497 19.2599 144.168 12.6594 152.689 7.69645C161.208 2.73351 172.558 0 184.649 0C196.738 0 208.118 2.73351 216.697 7.69645C225.273 12.6594 230.019 19.2599 230.056 26.2793ZM164.3 38.2189C175.675 44.8019 194.126 44.8019 205.426 38.2189C216.729 31.6359 216.667 20.9226 205.291 14.3396C193.916 7.75664 175.468 7.75664 164.165 14.3396C152.862 20.9226 152.924 31.6359 164.3 38.2189Z" fill="#E4EDFB"/>
<path d="M77.6965 81.3732C77.7365 81.3582 77.7765 81.3456 77.8166 81.3331C77.8941 81.308 77.9742 81.2855 78.0567 81.2654C78.0968 81.2554 78.1343 81.2453 78.1743 81.2378C78.2794 81.2152 78.3845 81.1952 78.492 81.1801C78.5095 81.1776 78.5246 81.1751 78.5421 81.1726C78.5521 81.1701 78.5646 81.1701 78.5746 81.1701C78.6622 81.1601 78.7522 81.1525 78.8423 81.1475C78.8723 81.145 78.9023 81.145 78.9298 81.1425C79.0099 81.14 79.0925 81.1375 79.175 81.1375C79.1975 81.1375 79.22 81.1375 79.2426 81.1375C79.3426 81.14 79.4452 81.145 79.5503 81.155C79.6804 81.1651 79.8105 81.1801 79.9456 81.2002C79.9606 81.2027 79.9756 81.2052 79.9881 81.2077C80.1082 81.2278 80.2283 81.2503 80.3508 81.2779C80.4059 81.2905 80.4634 81.3055 80.5185 81.3206C80.591 81.3381 80.6636 81.3557 80.7361 81.3782C80.7962 81.3958 80.8537 81.4159 80.9137 81.4334C80.9863 81.456 81.0588 81.4786 81.1314 81.5061C81.1964 81.5287 81.2615 81.5538 81.3265 81.5789C81.3916 81.6039 81.4566 81.629 81.5217 81.6541C81.5892 81.6817 81.6543 81.7118 81.7218 81.7394C81.7869 81.7695 81.8544 81.797 81.9194 81.8296C82.002 81.8698 82.0871 81.9099 82.1696 81.9525C82.2122 81.9726 82.2522 81.9927 82.2947 82.0152C82.4223 82.0829 82.5499 82.1507 82.6775 82.2259L128.292 55.6532C128.164 55.578 128.034 55.5077 127.909 55.4425C127.867 55.42 127.827 55.3999 127.784 55.3798C127.719 55.3472 127.654 55.3121 127.592 55.282C127.572 55.272 127.554 55.2645 127.534 55.257C127.466 55.2269 127.401 55.1968 127.336 55.1692C127.269 55.1391 127.201 55.109 127.136 55.0839C127.071 55.0563 127.006 55.0338 126.941 55.0087C126.894 54.9911 126.846 54.9711 126.801 54.9535C126.783 54.946 126.763 54.941 126.746 54.936C126.673 54.9109 126.601 54.8883 126.528 54.8632C126.468 54.8457 126.408 54.8256 126.351 54.8081C126.278 54.788 126.206 54.7679 126.133 54.7504C126.088 54.7378 126.043 54.7253 125.998 54.7153C125.988 54.7128 125.975 54.7103 125.965 54.7103C125.843 54.6827 125.723 54.6601 125.605 54.64C125.59 54.6375 125.575 54.635 125.56 54.6325C125.428 54.6125 125.295 54.5974 125.165 54.5874C125.157 54.5874 125.15 54.5849 125.142 54.5849C125.047 54.5773 124.952 54.5723 124.86 54.5698C124.837 54.5698 124.815 54.5698 124.79 54.5698C124.707 54.5698 124.624 54.5698 124.544 54.5748C124.514 54.5748 124.484 54.5773 124.457 54.5799C124.367 54.5849 124.277 54.5924 124.189 54.6024C124.179 54.6049 124.167 54.6049 124.157 54.6049C124.154 54.6049 124.152 54.6049 124.149 54.6049C124.134 54.6074 124.122 54.6099 124.107 54.6125C123.999 54.6275 123.894 54.6451 123.789 54.6701C123.749 54.6777 123.711 54.6902 123.671 54.7002C123.591 54.7203 123.511 54.7429 123.431 54.7679C123.391 54.7805 123.349 54.793 123.309 54.8081C123.231 54.8357 123.153 54.8657 123.076 54.8983C123.041 54.9134 123.006 54.9259 122.973 54.9435C122.866 54.9936 122.761 55.0463 122.658 55.1065L77.046 81.6717C77.1486 81.6115 77.2537 81.5588 77.3612 81.5086C77.3938 81.4936 77.4288 81.4786 77.4638 81.4635C77.5414 81.4334 77.6189 81.4008 77.6965 81.3732Z" fill="#C0D6F6"/>
<path d="M136.17 69.8927C136.175 69.8099 136.178 69.7221 136.18 69.6369C136.183 69.5842 136.185 69.534 136.185 69.4839C136.185 69.4438 136.185 69.4011 136.185 69.361C136.185 69.213 136.183 69.0651 136.178 68.9146C136.175 68.867 136.173 68.8168 136.17 68.7692C136.165 68.6914 136.163 68.6137 136.158 68.5359C136.155 68.5134 136.153 68.4933 136.153 68.4707C136.148 68.3905 136.138 68.3077 136.13 68.2275C136.123 68.1472 136.115 68.067 136.105 67.9867C136.095 67.904 136.085 67.8237 136.073 67.741C136.065 67.6808 136.058 67.6231 136.05 67.5629C136.048 67.5428 136.043 67.5203 136.04 67.5002C136.025 67.4049 136.008 67.3096 135.993 67.2143C135.98 67.1416 135.968 67.0664 135.953 66.9936C135.933 66.8958 135.913 66.7955 135.893 66.6977C135.88 66.64 135.87 66.5798 135.855 66.5222C135.853 66.5096 135.85 66.4996 135.848 66.4871C135.805 66.3065 135.763 66.1259 135.713 65.9429C135.708 65.9228 135.7 65.9027 135.695 65.8827C135.653 65.7222 135.605 65.5592 135.555 65.3987C135.55 65.3836 135.547 65.3686 135.542 65.3535C135.532 65.3234 135.522 65.2908 135.512 65.2607C135.457 65.0827 135.397 64.9046 135.335 64.7291C135.317 64.6764 135.297 64.6238 135.28 64.5686C135.202 64.3579 135.122 64.1448 135.037 63.9366C135.035 63.9291 135.032 63.9216 135.027 63.9141C134.97 63.7736 134.912 63.6332 134.849 63.4927C134.837 63.4652 134.827 63.4401 134.814 63.415C134.759 63.2921 134.704 63.1667 134.647 63.0438C134.622 62.9937 134.599 62.941 134.574 62.8909C134.527 62.7906 134.479 62.6928 134.429 62.5949C134.402 62.5398 134.374 62.4846 134.347 62.4294C134.297 62.3341 134.249 62.2388 134.197 62.1435C134.169 62.0909 134.141 62.0382 134.111 61.9855C134.054 61.8802 133.996 61.7774 133.936 61.6721C133.914 61.6319 133.891 61.5893 133.866 61.5492C133.784 61.4062 133.699 61.2633 133.614 61.1229C133.599 61.0978 133.581 61.0727 133.566 61.0476C133.494 60.9323 133.421 60.8169 133.348 60.7016C133.318 60.6539 133.286 60.6088 133.256 60.5611C133.196 60.4683 133.133 60.378 133.071 60.2878C133.036 60.2376 133.001 60.1875 132.966 60.1373C132.903 60.0495 132.843 59.9617 132.778 59.8765C132.743 59.8288 132.708 59.7787 132.673 59.731C132.603 59.6357 132.53 59.5429 132.46 59.4502C132.433 59.4125 132.405 59.3749 132.375 59.3398C132.275 59.2119 132.173 59.084 132.07 58.9586C132.05 58.9361 132.032 58.9135 132.012 58.8909C131.927 58.7881 131.842 58.6878 131.755 58.59C131.717 58.5473 131.68 58.5072 131.645 58.4646C131.575 58.3843 131.502 58.3066 131.43 58.2289C131.39 58.1837 131.347 58.1411 131.307 58.0985C131.274 58.0658 131.244 58.0307 131.212 57.9981C131.189 57.9756 131.167 57.9555 131.144 57.9329C131.009 57.795 130.874 57.6596 130.737 57.5292C130.714 57.5066 130.692 57.484 130.669 57.464C130.511 57.316 130.351 57.1731 130.189 57.0326C130.171 57.0176 130.156 57.0025 130.141 56.99C130.106 56.9599 130.071 56.9348 130.039 56.9047C129.954 56.832 129.868 56.7618 129.781 56.6941C129.726 56.6489 129.668 56.6063 129.611 56.5612C129.523 56.4935 129.436 56.4283 129.348 56.3631C129.313 56.338 129.278 56.3104 129.243 56.2853C129.221 56.2703 129.198 56.2552 129.175 56.2377C129.103 56.185 129.028 56.1373 128.955 56.0872C128.893 56.0446 128.828 56.0019 128.765 55.9593C128.69 55.9116 128.615 55.864 128.54 55.8189C128.495 55.7913 128.447 55.7612 128.402 55.7336C128.367 55.711 128.33 55.691 128.295 55.6709L82.6803 82.226C82.7629 82.2737 82.8454 82.3264 82.928 82.3765C83.003 82.4216 83.0781 82.4693 83.1531 82.5169C83.2157 82.5571 83.2807 82.5997 83.3433 82.6423C83.4158 82.6925 83.4909 82.7426 83.5634 82.7928C83.621 82.8329 83.6785 82.8756 83.736 82.9182C83.8236 82.9834 83.9112 83.0486 83.9987 83.1163C84.0563 83.1589 84.1113 83.2041 84.1688 83.2492C84.2564 83.3194 84.3415 83.3897 84.4265 83.4599C84.4766 83.5025 84.5291 83.5451 84.5791 83.5878C84.7417 83.7282 84.9019 83.8712 85.0595 84.0191C85.082 84.0417 85.1045 84.0643 85.127 84.0843C85.2646 84.2147 85.4022 84.3501 85.5348 84.4881C85.5873 84.5432 85.6424 84.5984 85.6949 84.6536C85.7374 84.6962 85.7775 84.7414 85.8175 84.7865C85.8901 84.8642 85.9626 84.9445 86.0327 85.0222C86.0702 85.0624 86.1077 85.105 86.1427 85.1451C86.2303 85.2429 86.3154 85.3457 86.4004 85.4461C86.4204 85.4686 86.4404 85.4912 86.4605 85.5163C86.563 85.6417 86.6656 85.7671 86.7657 85.8975C86.7957 85.9351 86.8232 85.9727 86.8507 86.0078C86.9233 86.1006 86.9933 86.1934 87.0634 86.2887C87.0984 86.3363 87.1334 86.384 87.1685 86.4341C87.231 86.5194 87.2935 86.6072 87.3536 86.6949C87.3886 86.7451 87.4236 86.7953 87.4587 86.8479C87.5212 86.9382 87.5812 87.0285 87.6413 87.1213C87.6738 87.1689 87.7038 87.2166 87.7364 87.2642C87.8114 87.3771 87.8815 87.4924 87.954 87.6078C87.969 87.6329 87.9865 87.6579 88.0015 87.683C88.0891 87.8235 88.1717 87.9664 88.2542 88.1093C88.2767 88.1495 88.3018 88.1921 88.3243 88.2322C88.3818 88.335 88.4418 88.4379 88.4969 88.5432C88.5269 88.5959 88.5544 88.6485 88.5819 88.7037C88.632 88.799 88.682 88.8943 88.7295 88.9896C88.7571 89.0448 88.7871 89.0999 88.8146 89.1551C88.8646 89.2529 88.9122 89.3507 88.9572 89.451C88.9822 89.5012 89.0072 89.5538 89.0298 89.6065C89.0873 89.7294 89.1423 89.8523 89.1974 89.9752C89.2099 90.0027 89.2224 90.0303 89.2349 90.0554C89.3 90.2034 89.36 90.3513 89.42 90.4993C89.5051 90.7099 89.5852 90.9206 89.6627 91.1338C89.6827 91.1864 89.7002 91.2391 89.7177 91.2917C89.7803 91.4698 89.8403 91.6479 89.8954 91.8259C89.9104 91.8711 89.9254 91.9187 89.9379 91.9638C89.9879 92.1243 90.033 92.2874 90.078 92.4479C90.083 92.4679 90.0905 92.488 90.0955 92.508C90.143 92.6886 90.1881 92.8717 90.2306 93.0522C90.2456 93.1224 90.2606 93.1902 90.2756 93.2604C90.2957 93.3607 90.3182 93.4585 90.3382 93.5588C90.3532 93.6315 90.3632 93.7043 90.3782 93.7795C90.3957 93.8748 90.4107 93.9701 90.4257 94.0654C90.4383 94.1456 90.4483 94.2259 90.4583 94.3061C90.4683 94.3889 90.4808 94.4716 90.4908 94.5544C90.5008 94.6347 90.5083 94.7149 90.5158 94.7952C90.5233 94.8779 90.5308 94.9582 90.5383 95.0409C90.5458 95.1412 90.5508 95.239 90.5558 95.3393C90.5583 95.3895 90.5608 95.4372 90.5633 95.4873C90.5683 95.6378 90.5733 95.7857 90.5708 95.9337C90.5708 96.029 90.5658 96.1193 90.5633 96.2096C90.5608 96.2948 90.5583 96.3826 90.5533 96.4654C90.5483 96.5356 90.5433 96.6033 90.5383 96.6735C90.5308 96.7563 90.5258 96.8365 90.5158 96.9168C90.5083 96.9794 90.5008 97.0396 90.4933 97.1023C90.4808 97.1976 90.4683 97.2904 90.4533 97.3832C90.4433 97.4409 90.4332 97.5011 90.4232 97.5588C90.4057 97.649 90.3882 97.7393 90.3682 97.8271C90.3557 97.8873 90.3407 97.95 90.3257 98.0102C90.3182 98.0428 90.3082 98.0754 90.3007 98.1105C90.2781 98.1982 90.2506 98.286 90.2256 98.3713C90.2181 98.3964 90.2106 98.4214 90.2031 98.4465C90.1681 98.5518 90.1305 98.6572 90.093 98.7575C90.083 98.7801 90.0755 98.8026 90.0655 98.8252C90.0355 98.8979 90.0054 98.9681 89.9754 99.0384C89.9479 99.0985 89.9204 99.1562 89.8904 99.2164C89.8653 99.2666 89.8428 99.3142 89.8153 99.3619C89.7853 99.4195 89.7528 99.4747 89.7202 99.5299C89.6927 99.575 89.6677 99.6227 89.6402 99.6653C89.6052 99.718 89.5701 99.7706 89.5351 99.8233C89.5051 99.8659 89.4776 99.9086 89.4476 99.9487C89.41 99.9988 89.37 100.046 89.3325 100.097C89.3025 100.134 89.2724 100.174 89.2399 100.209C89.1974 100.257 89.1548 100.302 89.1123 100.347C89.0798 100.38 89.0498 100.415 89.0173 100.448C88.9697 100.493 88.9222 100.536 88.8747 100.578C88.8421 100.606 88.8121 100.636 88.7796 100.663C88.7245 100.709 88.667 100.751 88.612 100.794C88.5844 100.814 88.5569 100.839 88.5269 100.859C88.4393 100.919 88.3518 100.977 88.2592 101.03L133.871 74.4594C133.961 74.4067 134.051 74.349 134.139 74.2888C134.167 74.2688 134.194 74.2462 134.224 74.2261C134.282 74.1835 134.339 74.1409 134.392 74.0957C134.424 74.0681 134.454 74.0381 134.487 74.0105C134.534 73.9678 134.584 73.9252 134.629 73.8801C134.662 73.8475 134.694 73.8124 134.724 73.7798C134.767 73.7346 134.809 73.6895 134.852 73.6418C134.885 73.6042 134.915 73.5666 134.945 73.529C134.985 73.4813 135.022 73.4337 135.06 73.3835C135.09 73.3434 135.117 73.3008 135.147 73.2581C135.182 73.208 135.217 73.1553 135.252 73.1026C135.28 73.0575 135.307 73.0124 135.335 72.9672C135.367 72.9121 135.4 72.8569 135.43 72.8017C135.455 72.7541 135.48 72.7039 135.505 72.6537C135.532 72.5961 135.562 72.5359 135.59 72.4782C135.6 72.4581 135.61 72.4381 135.62 72.4155C135.64 72.3654 135.66 72.3152 135.68 72.265C135.69 72.2425 135.698 72.2199 135.708 72.1973C135.748 72.097 135.783 71.9917 135.818 71.8864C135.825 71.8613 135.833 71.8362 135.84 71.8111C135.868 71.7259 135.893 71.6381 135.915 71.5503C135.925 71.5177 135.933 71.4851 135.94 71.45C135.948 71.4249 135.953 71.3998 135.96 71.3748C135.968 71.3397 135.975 71.302 135.983 71.2669C136.003 71.1792 136.02 71.0889 136.038 70.9986C136.048 70.9409 136.058 70.8832 136.068 70.8231C136.083 70.7303 136.095 70.6375 136.108 70.5422C136.113 70.5046 136.12 70.4695 136.123 70.4318C136.125 70.4068 136.128 70.3817 136.13 70.3566C136.138 70.2763 136.145 70.1961 136.153 70.1133C136.16 70.0331 136.165 69.9629 136.17 69.8927Z" fill="#C0D6F6"/>
<path d="M82.68 82.2259C87.0531 84.7562 90.5881 90.8953 90.5731 95.931C90.5581 100.969 87.0005 103.001 82.6275 100.468C78.2544 97.9373 74.7194 91.8007 74.7344 86.7625C74.7494 81.7268 78.3069 79.693 82.68 82.2259Z" fill="#81ABEE"/>
<path d="M184.608 218.222L92.5085 164.921L184.008 111.62L184.608 218.222Z" fill="#C0D6F6"/>
<path d="M184.608 218.222L184.008 111.62L276.105 164.921L184.608 218.222Z" fill="#C0D6F6"/>
<path d="M158.399 203.057L184.608 218.222L210.123 203.358L184.007 187.993L158.399 203.057Z" fill="#E4EDFB"/>
<path d="M276.105 164.921L296.392 136.547L204.295 83.2466L184.008 111.62L276.105 164.921Z" fill="#E4EDFB"/>
<path d="M92.5084 164.921L72.2217 136.547L163.719 83.2466L184.008 111.62L92.5084 164.921Z" fill="#E4EDFB"/>
<path d="M179.252 172.273L191.34 165.833C191.72 165.63 192.116 165.43 192.524 165.232C192.911 165.036 193.287 164.84 193.652 164.647L181.563 171.087C181.201 171.28 180.823 171.476 180.435 171.672C180.027 171.87 179.634 172.07 179.252 172.273Z" fill="#E14761"/>
<path d="M171.145 145.011L183.234 138.571C181.3 139.609 180.307 141.969 180.256 145.651L168.168 152.091C168.218 148.409 169.211 146.049 171.145 145.011Z" fill="#E14761"/>
<path d="M213.98 151.752C212.902 148.189 211.296 144.738 209.162 141.408C207.028 138.08 204.436 135.008 201.389 132.201C198.339 129.395 194.872 126.998 190.976 125.009C187.369 123.166 184.044 122.163 181.002 121.982C178.092 121.817 175.558 122.306 173.394 123.459L161.308 129.897C163.472 128.743 166.009 128.254 168.916 128.42C171.958 128.6 175.283 129.603 178.89 131.446C182.786 133.435 186.253 135.835 189.303 138.639C192.35 141.443 194.942 144.517 197.076 147.845C199.21 151.178 200.813 154.629 201.894 158.19C202.972 161.763 203.488 165.299 203.443 168.81C203.413 171.12 203.205 173.129 202.822 174.826C202.437 176.529 201.817 178.024 200.969 179.313C200.115 180.602 198.992 181.773 197.601 182.831C196.558 183.621 195.347 184.414 193.976 185.209C193.643 185.402 193.301 185.592 192.95 185.786L191.86 186.367C190.504 187.09 189.42 187.739 188.602 188.318C187.649 188.996 186.934 189.665 186.451 190.325C185.97 190.984 185.655 191.641 185.503 192.293C185.345 192.95 185.267 193.663 185.257 194.432L185.225 197L197.313 190.56L197.346 187.992C197.356 187.223 197.436 186.51 197.591 185.853C197.744 185.201 198.059 184.542 198.539 183.885C199.022 183.225 199.738 182.556 200.691 181.878C201.304 181.442 202.067 180.968 202.982 180.454C203.098 180.389 203.218 180.324 203.338 180.256L204.639 179.561C206.61 178.5 208.296 177.445 209.687 176.389C211.078 175.331 212.201 174.159 213.055 172.87C213.905 171.581 214.523 170.087 214.908 168.384C215.291 166.686 215.499 164.677 215.529 162.368C215.574 158.859 215.058 155.323 213.98 151.752Z" fill="#E14761"/>
<path d="M178.891 131.446C182.786 133.435 186.254 135.835 189.303 138.639C192.35 141.442 194.942 144.517 197.076 147.845C199.21 151.178 200.814 154.629 201.895 158.19C202.973 161.763 203.488 165.299 203.443 168.81C203.413 171.12 203.206 173.129 202.823 174.826C202.438 176.529 201.817 178.024 200.969 179.313C200.116 180.602 198.993 181.773 197.602 182.831C196.208 183.887 194.525 184.943 192.553 186.004C190.872 186.871 189.556 187.641 188.603 188.318C187.65 188.995 186.934 189.665 186.451 190.325C185.971 190.984 185.656 191.641 185.503 192.293C185.346 192.95 185.268 193.662 185.258 194.432L185.225 197L170.95 189.708L171.018 184.572C171.061 181.317 171.816 178.751 173.297 176.875C174.773 175.002 177.155 173.269 180.442 171.672C183.071 170.342 185.138 169.071 186.644 167.855C188.148 166.641 188.916 164.707 188.951 162.049C188.993 158.796 188.143 155.712 186.404 152.798C184.663 149.884 182.098 147.562 178.711 145.831C175.609 144.246 173.089 143.973 171.153 145.009C169.219 146.047 168.226 148.407 168.176 152.088L153.686 144.688C153.731 141.174 154.406 138.18 155.707 135.7C157.006 133.219 158.774 131.344 161.006 130.065C163.238 128.791 165.874 128.246 168.921 128.417C171.959 128.6 175.283 129.603 178.891 131.446Z" fill="#F196A5"/>
<path d="M184.768 225.605C191.442 225.605 196.852 220.181 196.852 213.492C196.852 206.802 191.442 201.379 184.768 201.379C178.095 201.379 172.685 206.802 172.685 213.492C172.685 220.181 178.095 225.605 184.768 225.605Z" fill="#F196A5"/>
<path d="M196.852 213.492C196.852 216.659 191.443 222.675 184.768 222.675C178.093 222.675 172.685 217.61 172.685 213.492C172.685 206.804 178.093 201.379 184.768 201.379C191.443 201.379 196.852 206.804 196.852 213.492Z" fill="#F196A5"/>
<path d="M184.767 201.382C181.362 201.382 178.288 202.796 176.091 205.068C186.356 202.538 195.19 211.039 192.973 222.379C195.357 220.168 196.848 217.005 196.848 213.492C196.851 206.803 191.439 201.382 184.767 201.382Z" fill="#E14761"/>
<path d="M276.106 164.921L275.805 241.996L184.309 295.297L184.609 218.222L276.106 164.921Z" fill="#E4EDFB"/>
<path d="M184.608 218.222L184.308 295.297L92.2078 241.996L92.508 164.921L184.608 218.222Z" fill="#C0D6F6"/>
<path d="M184.608 218.222L155.17 216.336L63.0703 163.035L92.5085 164.921L184.608 218.222Z" fill="#E4EDFB"/>
<path d="M184.608 218.222L214.044 216.336L305.543 163.035L276.105 164.921L184.608 218.222Z" fill="#E4EDFB"/>
</svg>
