<svg width="16" height="12" viewBox="0 0 16 12" fill="none" xmlns="http://www.w3.org/2000/svg">
<path d="M7 6C7 5.44772 7.44772 5 8 5C8.55228 5 9 5.44772 9 6C9 6.55228 9.44772 7 10 7C10.5523 7 11 6.55228 11 6C11 4.34315 9.65685 3 8 3C6.34315 3 5 4.34315 5 6C5 7.65685 6.34315 9 8 9C8.55228 9 9 8.55228 9 8C9 7.44772 8.55228 7 8 7C7.44772 7 7 6.55228 7 6Z" fill="#3D75E4"/>
<path fill-rule="evenodd" clip-rule="evenodd" d="M8.00004 0C3.19768 0 0.784227 4.00237 0.190901 5.19285C0.0636339 5.44821 0 5.69924 0 6.00001C0 6.30078 0.0636341 6.55181 0.190903 6.80717C0.78423 7.99765 3.19768 12 8.00004 12C12.8024 12 15.2158 7.99765 15.8091 6.80717C15.9364 6.55181 16 6.27591 16 6.00001C16 5.72411 15.9364 5.44821 15.8091 5.19285C15.2158 4.00237 12.8024 0 8.00004 0ZM8.00004 10C4.53414 10 2.59929 7.16544 2 6.00001C2.59929 4.83458 4.53414 2 8.00004 2C11.4659 2 13.4007 4.83458 14 6.00001C13.4007 7.16544 11.4659 10 8.00004 10Z" fill="#3D75E4"/>
</svg>
