<svg width="16" height="16" viewBox="0 0 16 16" fill="none" xmlns="http://www.w3.org/2000/svg">
<path d="M5 6C4.44772 6 4 5.55229 4 5C4 4.44772 4.44772 4 5 4L10 4C10.5523 4 11 4.44771 11 5C11 5.55229 10.5523 6 10 6L5 6Z" fill="#04153E"/>
<path d="M4 8C4 8.55229 4.44772 9 5 9H9C9.55229 9 10 8.55229 10 8C10 7.44771 9.55228 7 9 7L5 7C4.44772 7 4 7.44772 4 8Z" fill="#04153E"/>
<path d="M5 12C4.44772 12 4 11.5523 4 11C4 10.4477 4.44772 10 5 10H11C11.5523 10 12 10.4477 12 11C12 11.5523 11.5523 12 11 12H5Z" fill="#04153E"/>
<path fill-rule="evenodd" clip-rule="evenodd" d="M4 16C2.34315 16 1 14.6569 1 13L1 3C1 1.34315 2.34315 6.84383e-07 4 5.39536e-07L10.1716 0C10.9672 -6.95579e-08 11.7303 0.31607 12.2929 0.878679L14.1213 2.70711C14.6839 3.26972 15 4.03278 15 4.82843L15 13C15 14.6569 13.6569 16 12 16H4ZM3 13C3 13.5523 3.44772 14 4 14L12 14C12.5523 14 13 13.5523 13 13L13 4.82843C13 4.56321 12.8946 4.30886 12.7071 4.12132L10.8787 2.29289C10.6911 2.10536 10.4368 2 10.1716 2L4 2C3.44772 2 3 2.44772 3 3L3 13Z" fill="#04153E"/>
</svg>
