<svg width="20" height="14" viewBox="0 0 20 14" fill="none" xmlns="http://www.w3.org/2000/svg">
<path fill-rule="evenodd" clip-rule="evenodd" d="M0 3C0 1.34315 1.34315 0 3 0H17C18.6569 0 20 1.34315 20 3V11C20 12.6569 18.6569 14 17 14H3C1.34315 14 0 12.6569 0 11V3ZM2 10.5858V3.41421L7.87868 9.29289C9.05025 10.4645 10.9497 10.4645 12.1213 9.29289L18 3.41421V10.5858L15.7071 8.29289C15.3166 7.90237 14.6834 7.90237 14.2929 8.29289C13.9024 8.68342 13.9024 9.31658 14.2929 9.70711L16.5858 12H3.41421L5.70711 9.70711C6.09763 9.31658 6.09763 8.68342 5.70711 8.29289C5.31658 7.90237 4.68342 7.90237 4.29289 8.29289L2 10.5858ZM3.41421 2H16.5858L10.7071 7.87868C10.3166 8.26921 9.68342 8.26921 9.29289 7.87868L3.41421 2Z" fill="#04153E"/>
</svg>
