<svg width="20" height="19" viewBox="0 0 20 19" fill="none" xmlns="http://www.w3.org/2000/svg">
<path d="M3.00004 2C2.44775 2 2.00004 2.44772 2.00004 3V13.5C2.00004 14.0523 1.55232 14.5 1.00004 14.5C0.447752 14.5 3.68268e-05 14.0523 3.68268e-05 13.5V3C3.68268e-05 1.34315 1.34318 0 3.00004 0H17C18.6569 0 20 1.34315 20 3V12C20 13.6569 18.6569 15 17 15H6.7016C6.47453 15 6.25422 15.0773 6.0769 15.2191L1.62473 18.7809C1.19347 19.1259 0.564178 19.056 0.219168 18.6247C-0.125842 18.1934 -0.0559201 17.5641 0.375342 17.2191L4.82751 13.6574C5.35945 13.2318 6.02038 13 6.7016 13H17C17.5523 13 18 12.5523 18 12V3C18 2.44772 17.5523 2 17 2H3.00004Z" fill="#04153E"/>
<path d="M5 6C5 5.44772 5.44772 5 6 5H14C14.5523 5 15 5.44772 15 6C15 6.55228 14.5523 7 14 7H6C5.44772 7 5 6.55228 5 6Z" fill="#04153E"/>
<path d="M6 8C5.44772 8 5 8.44771 5 9C5 9.55229 5.44772 10 6 10H12C12.5523 10 13 9.55229 13 9C13 8.44771 12.5523 8 12 8H6Z" fill="#04153E"/>
</svg>
