<svg width="637" height="372" viewBox="0 0 637 372" fill="none" xmlns="http://www.w3.org/2000/svg">
<path opacity="0.05" d="M69.3566 328.69C69.3566 178.803 179.051 57.2946 314.366 57.2946C449.681 57.2946 559.376 178.803 559.376 328.69" fill="#2A94F4"/>
<path d="M251.765 266.308H226.696V329.245H251.765V266.308Z" fill="#F0446F"/>
<path d="M308.257 211.058H283.186V329.246H308.257V211.058Z" fill="#3D75E4"/>
<path d="M364.746 223.279H339.677V329.245H364.746V223.279Z" fill="#F0446F"/>
<path d="M421.24 163.45H396.171V329.246H421.24V163.45Z" fill="#3D75E4"/>
<path d="M588.972 336.083H40.7673C30.6044 336.083 22.366 334.396 22.366 332.314C22.366 330.232 30.6044 328.545 40.7673 328.545H588.972C599.135 328.545 607.374 330.232 607.374 332.314C607.374 334.396 599.135 336.083 588.972 336.083Z" fill="#E4EDFB"/>
<path d="M281.541 60.2088C281.412 58.0642 277.703 53.6966 278.268 53.1494C278.675 52.7563 280.12 54.1063 280.899 54.8953C280.991 54.9876 281.126 55.0181 281.248 54.9738C281.37 54.9295 281.454 54.8187 281.464 54.6895C281.634 52.5828 282.161 46.6861 282.75 46.6307C283.346 46.5744 283.644 50.3044 283.727 51.5566C283.73 51.5945 283.758 51.6259 283.796 51.6305C283.834 51.6351 283.87 51.6129 283.882 51.5769C284.34 50.2518 285.887 45.9746 286.551 46.5237C287.182 47.046 286.203 51.1423 285.797 52.7184C285.786 52.7572 285.807 52.7978 285.845 52.8126C285.881 52.8273 285.924 52.8126 285.944 52.7775C286.742 51.3656 288.848 47.7861 289.417 48.2429C289.995 48.7089 288.365 52.5892 287.76 53.9661C287.745 54.002 287.758 54.0445 287.791 54.0657C287.824 54.0869 287.867 54.0805 287.894 54.051C288.806 53.0211 291.193 50.3967 291.179 51.1681C291.163 52.1214 286.969 60.0501 285.596 61.3771C284.223 62.7068 281.541 60.2088 281.541 60.2088Z" fill="#FA968C"/>
<path d="M311.276 0C289.219 0.0258384 271.313 17.9088 271.313 39.9692C271.313 50.5713 276.707 59.7255 282.171 67.9319C294.243 86.0659 287.383 95.89 294.352 95.89H311.253H328.241C335.216 95.89 328.336 86.0649 340.414 67.9319C345.875 59.7273 351.256 50.8583 351.256 40.2599C351.259 18.1948 333.333 0.0258384 311.276 0Z" fill="#FED2D6"/>
<path d="M291.794 54.9783C291.367 54.4412 290.58 54.3526 290.048 54.7771C289.511 55.2072 289.424 55.9888 289.851 56.5249C290.07 56.799 290.32 57.0648 290.591 57.325L303.846 97.7658C304.02 98.289 304.504 98.6222 305.028 98.6222C305.154 98.6222 305.284 98.6019 305.414 98.5594C306.067 98.3444 306.42 97.6468 306.204 96.9907L293.962 59.6274C296.934 61.0762 300.652 61.7397 303.684 60.7753C304.34 60.5659 304.936 60.289 305.474 59.9494C306.957 60.9202 308.771 61.4988 310.695 61.4988C312.971 61.4988 315.121 60.7698 316.752 59.4687C317.662 59.955 318.718 60.3573 319.893 60.6526C323.369 61.5339 326.443 61.3207 329.003 60.0703L316.897 96.9925C316.686 97.6458 317.041 98.3472 317.687 98.5594C317.818 98.6037 317.951 98.6213 318.08 98.6213C318.603 98.6213 319.09 98.2899 319.262 97.7676L332.536 57.2613C332.645 57.1294 332.774 57.0195 332.882 56.8811C333.303 56.3413 333.21 55.5588 332.67 55.137C332.129 54.7125 331.349 54.8076 330.929 55.3484C328.527 58.4157 325.017 59.3911 320.503 58.2478C319.995 58.1195 319.255 57.8944 318.491 57.5492C319.241 56.3736 319.612 55.0365 319.55 53.6818C319.441 50.9817 318.524 49.0013 317.034 48.2437C316.164 47.8026 315.199 47.858 314.393 48.3932C313.087 49.2652 312.447 51.2493 312.646 53.8322C312.767 55.401 313.451 56.7944 314.623 57.9377C312.589 59.2075 309.534 59.3441 307.349 58.1721C308.178 57.0011 308.662 55.5246 308.757 53.8026C308.892 51.3904 308.147 49.4369 306.767 48.5815C305.886 48.0333 304.829 48.0065 303.937 48.5178C302.527 49.3132 301.749 51.2216 301.789 53.7528C301.816 55.389 302.45 56.9254 303.498 58.1924C303.316 58.2746 303.127 58.3456 302.927 58.4084C299.217 59.5886 293.8 57.4985 291.794 54.9783ZM315.777 50.4566C315.801 50.4409 315.813 50.4307 315.833 50.4307C315.852 50.4307 315.875 50.4391 315.91 50.4566C316.274 50.6412 316.98 51.5741 317.069 53.7833C317.108 54.6203 316.873 55.448 316.407 56.1964C315.718 55.5385 315.208 54.6969 315.127 53.6375C314.98 51.7208 315.433 50.6845 315.777 50.4566ZM305.163 50.6781C305.209 50.6504 305.25 50.6356 305.298 50.6356C305.343 50.6356 305.395 50.6531 305.464 50.6928C305.813 50.9115 306.382 51.7845 306.278 53.6652C306.215 54.8473 305.923 55.8282 305.415 56.6015C304.718 55.759 304.295 54.7596 304.278 53.715C304.245 51.731 304.82 50.8718 305.163 50.6781Z" fill="#113079"/>
<path d="M325.349 95.8897H297.189C295.555 95.8897 294.231 98.8999 294.231 100.537C294.231 102.173 295.556 105.184 297.189 105.184H306.627L296.29 107.111C294.739 107.613 293.886 108.57 294.389 110.125C294.793 111.377 295.955 111.819 297.207 111.819C297.507 111.819 297.815 111.589 298.119 111.496L326.268 102.276C327.65 101.826 328.504 100.131 328.277 98.6932C328.045 97.2536 326.805 95.8897 325.349 95.8897Z" fill="#113079"/>
<path d="M325.315 116.802H315.904L326.229 112.135C327.781 111.634 328.633 109.305 328.129 107.749C327.624 106.197 325.957 105.012 324.4 105.515L296.274 114.48C294.887 114.933 294.037 116.921 294.264 118.359C294.488 119.799 295.732 121.449 297.189 121.449H299.746L304.221 128.421H318.176L322.721 121.449H325.315C326.951 121.449 328.272 120.76 328.272 119.126C328.272 117.491 326.951 116.802 325.315 116.802Z" fill="#113079"/>
<path d="M228.884 234.626L214.654 217.625L283.98 159.351L344.264 169.398L412.658 116.57L415.417 119.048L350.203 191.647L291.057 178.798L228.884 234.626Z" fill="#F0446F"/>
<path d="M416.396 151.641L376.732 113.606L427.937 99.9052L416.396 151.641Z" fill="#F0446F"/>
<path d="M451.115 276.612C459.554 285.05 473.222 285.038 481.661 276.612C490.099 268.174 490.099 254.505 481.661 246.066C473.223 237.628 459.554 237.615 451.115 246.066C442.677 254.492 442.677 268.173 451.115 276.612ZM454.526 249.477C461.083 242.92 471.694 242.92 478.249 249.477C484.806 256.02 484.806 266.644 478.249 273.2C471.706 279.757 461.082 279.757 454.526 273.2C447.97 266.644 447.97 256.02 454.526 249.477Z" fill="#81ABEE"/>
<path opacity="0.25" d="M453.059 266.822C452.87 262.893 454.285 258.888 457.291 255.895C462.951 250.222 472.109 250.222 477.768 255.895C479.259 257.385 480.358 259.116 481.065 260.973C480.888 257.512 479.486 254.088 476.833 251.448C471.174 245.788 462.016 245.788 456.357 251.448C452.2 255.604 451.089 261.655 453.059 266.822Z" fill="white"/>
<path d="M503.458 298.271C504.55 297.179 504.55 295.408 503.458 294.316L482.887 273.745L478.932 277.7L499.503 298.271C500.596 299.362 502.365 299.362 503.458 298.271Z" fill="#81ABEE"/>
<path d="M506.91 301.721C508.428 300.203 508.428 297.742 506.91 296.225L487.881 277.196C487.456 276.771 486.766 276.771 486.339 277.196L482.384 281.151C481.959 281.576 481.959 282.267 482.384 282.693L501.413 301.722C502.931 303.239 505.392 303.239 506.91 301.721Z" fill="#FF99AA"/>
<path d="M171.459 301.205C183.068 300.465 191.879 290.454 191.139 278.846C190.399 267.237 180.388 258.425 168.78 259.165C157.171 259.905 148.359 269.916 149.099 281.525C149.839 293.134 159.85 301.945 171.459 301.205Z" fill="#FF99AA"/>
<path d="M179.103 270.375L175.482 269.025C174.878 268.8 174.205 269.107 173.979 269.711L169.06 282.901C168.839 283.492 168.189 283.802 167.59 283.599L161.94 281.686C161.329 281.479 160.666 281.806 160.458 282.417L159.218 286.077C159.011 286.688 159.339 287.352 159.95 287.559L171.297 291.404C171.895 291.607 172.545 291.297 172.767 290.705L179.788 271.879C180.014 271.274 179.707 270.601 179.103 270.375Z" fill="white"/>
<path d="M63.6732 351.591C98.8389 351.591 127.346 350.764 127.346 349.745C127.346 348.726 98.8389 347.899 63.6732 347.899C28.5075 347.899 0 348.726 0 349.745C0 350.764 28.5075 351.591 63.6732 351.591Z" fill="#E4EDFB"/>
<path d="M157.799 371.892C192.965 371.892 221.472 371.066 221.472 370.047C221.472 369.027 192.965 368.201 157.799 368.201C122.633 368.201 94.1255 369.027 94.1255 370.047C94.1255 371.066 122.633 371.892 157.799 371.892Z" fill="#E4EDFB"/>
<path d="M274.072 351.591C309.238 351.591 337.746 350.764 337.746 349.745C337.746 348.726 309.238 347.899 274.072 347.899C238.907 347.899 210.399 348.726 210.399 349.745C210.399 350.764 238.907 351.591 274.072 351.591Z" fill="#E4EDFB"/>
<path d="M368.198 371.892C403.364 371.892 431.871 371.066 431.871 370.047C431.871 369.027 403.364 368.201 368.198 368.201C333.032 368.201 304.525 369.027 304.525 370.047C304.525 371.066 333.032 371.892 368.198 371.892Z" fill="#E4EDFB"/>
<path d="M478.935 351.591C514.101 351.591 542.609 350.764 542.609 349.745C542.609 348.726 514.101 347.899 478.935 347.899C443.77 347.899 415.262 348.726 415.262 349.745C415.262 350.764 443.77 351.591 478.935 351.591Z" fill="#E4EDFB"/>
<path d="M573.061 371.892C608.227 371.892 636.734 371.066 636.734 370.047C636.734 369.027 608.227 368.201 573.061 368.201C537.895 368.201 509.388 369.027 509.388 370.047C509.388 371.066 537.895 371.892 573.061 371.892Z" fill="#E4EDFB"/>
<path opacity="0.4" d="M527.404 151.34C532.078 162.005 527.222 174.44 516.557 179.114C505.891 183.788 493.456 178.931 488.782 168.267C484.108 157.601 488.965 145.166 499.631 140.492C510.296 135.817 522.73 140.674 527.404 151.34Z" fill="#81ABEE"/>
<path d="M495.074 152.373L511.455 145.194C513.011 144.512 514.842 145.227 515.524 146.783L522.703 163.165C523.385 164.72 522.67 166.55 521.114 167.232L504.733 174.412C503.177 175.094 501.346 174.379 500.664 172.823L493.485 156.442C492.803 154.886 493.518 153.055 495.074 152.373ZM509.373 149.024C508.826 149.264 508.576 149.907 508.815 150.453L509.855 152.827C510.094 153.374 510.737 153.625 511.283 153.386L513.773 152.294C514.319 152.055 514.57 151.413 514.331 150.866L513.291 148.492C513.052 147.946 512.409 147.695 511.863 147.934L509.373 149.024ZM515.877 154.366L513.938 155.216C514.384 155.736 514.763 156.325 515.051 156.984C516.656 160.648 514.891 164.965 511.107 166.623C507.325 168.281 502.954 166.654 501.347 162.989C501.058 162.33 500.882 161.653 500.802 160.972L498.778 161.859L502.859 171.169C503.07 171.652 503.636 171.87 504.118 171.659L519.465 164.933C519.948 164.721 520.168 164.157 519.957 163.675L515.877 154.366ZM506.215 155.457C503.77 156.529 502.63 159.316 503.669 161.686C504.706 164.053 507.53 165.106 509.974 164.035C512.419 162.963 513.558 160.174 512.521 157.807C511.481 155.437 508.658 154.386 506.215 155.457Z" fill="white"/>
<path opacity="0.4" d="M154.433 188.245C166.445 188.245 176.183 178.507 176.183 166.495C176.183 154.482 166.445 144.744 154.433 144.744C142.42 144.744 132.682 154.482 132.682 166.495C132.682 178.507 142.42 188.245 154.433 188.245Z" fill="#81ABEE"/>
<path d="M148.158 155.619L164.264 166.495L148.158 177.371V155.619Z" fill="white"/>
<path opacity="0.4" d="M80.6099 249.701V215.612C77.1419 215.687 74.1496 216.204 70.7679 217.304C61.9406 220.171 54.7572 226.305 50.545 234.576C46.467 242.579 45.6422 251.657 48.1914 260.235L80.6099 249.701Z" fill="#3D75E4"/>
<path d="M96.9285 256.302L81.5067 251.292L48.7429 261.938C52.4372 272.503 60.0388 279.913 70.767 283.4C74.2618 284.535 77.8756 285.111 81.5124 285.111C96.309 285.111 109.36 275.837 114.267 261.938L96.9285 256.302Z" fill="#3D75E4"/>
<path opacity="0.1" d="M102.648 222.771L82.9529 249.878L114.819 260.232C119.01 246.195 114.29 231.666 102.648 222.771Z" fill="#3D75E4"/>
<path opacity="0.62" d="M82.4023 247.593L101.202 221.718C95.4361 217.717 89.4188 215.762 82.4023 215.609V247.593Z" fill="#3D75E4"/>
<path opacity="0.62" d="M189.356 105.808C203.169 105.808 214.366 94.6105 214.366 80.7975C214.366 66.9845 203.169 55.7868 189.356 55.7868C175.543 55.7868 164.345 66.9845 164.345 80.7975C164.345 94.6105 175.543 105.808 189.356 105.808Z" fill="#3D75E4"/>
<path d="M195.79 77.9665L193.037 72.8182L188.368 76.1467L186.221 73.1356C185.249 71.7708 184.966 70.5684 186.924 69.174L189.418 67.3949L186.412 63.1777C185.941 63.4278 184.368 64.3543 182.643 65.5844C179.042 68.1507 178.146 72.1039 181.022 76.1384L183.501 79.6155L179.429 82.5177L182.79 87.2332L186.862 84.331L195.484 96.428L200.352 92.9583L191.73 80.8613L195.79 77.9665Z" fill="white"/>
<path opacity="0.62" d="M475.396 50.7374C475.396 63.7692 464.831 74.3343 451.799 74.3343C438.767 74.3343 428.202 63.7701 428.202 50.7374C428.202 37.7047 438.767 27.1395 451.799 27.1395C464.832 27.1395 475.396 37.7047 475.396 50.7374Z" fill="#3D75E4"/>
<path d="M458.041 62.6038C457.729 63.0366 457.319 63.3503 456.869 63.5626L455.651 52.0986L465.701 51.1371C465.668 51.6907 465.492 52.2435 465.144 52.7271L458.041 62.6038Z" fill="white"/>
<path d="M451.636 51.1489L465.945 49.7804C465.725 49.3236 465.409 48.912 464.97 48.5974L449.813 37.6982C449.375 37.3826 448.881 37.2119 448.38 37.151L451.636 51.1489Z" fill="white"/>
<path d="M454.421 52.4461L451.108 52.7645C450.915 52.782 450.73 52.7276 450.58 52.6205C450.433 52.5144 450.321 52.3566 450.277 52.1665L449.524 48.9247L437.864 51.5104C438.076 52.0309 438.426 52.5033 438.916 52.8559L454.073 63.7551C454.564 64.1076 455.123 64.2894 455.684 64.3244L454.421 52.4461Z" fill="white"/>
<path d="M446.828 37.35C446.302 37.5641 445.825 37.9157 445.47 38.4103L438.205 48.514C437.886 48.957 437.714 49.4562 437.655 49.961L449.168 47.4094L446.828 37.35Z" fill="white"/>
<path d="M534.861 249.971C534.861 249.971 539.557 254.974 543.78 259.119C548.003 263.265 553.664 266.857 553.664 266.857C553.664 266.857 555.688 266.119 559.091 264.182C562.495 262.245 562.784 261.428 562.784 261.428C562.784 261.428 561.379 257.243 558.672 257.331C558.119 255.684 557.112 253.637 554.988 253.751C554.645 251.896 552.897 248.244 550.131 247.895C550.08 245.793 548.842 244.12 548.842 244.12L534.861 249.971Z" fill="#3D75E4"/>
<path d="M553.279 243.022L556.183 248.284C556.183 248.284 555.617 249.03 554.679 249.337C553.741 249.644 551.422 247.362 550.742 246.192C550.062 245.023 549.4 243.468 549.4 243.468L553.279 243.022Z" fill="#3D75E4"/>
<path d="M519.749 239.38C519.749 239.38 519.706 240.205 520.097 241.762C518.65 243.248 518.217 245.538 519.186 247.505C520.155 249.471 522.235 250.524 524.295 250.281C525.292 251.539 525.972 252.008 525.972 252.008L530.588 250.999L526.975 243.667L523.361 236.334L519.749 239.38Z" fill="#3D75E4"/>
<path d="M549.255 214.219C544.875 223.015 534.963 228.698 530.362 231.205C525.761 233.713 524.349 233.929 523.443 235.335C522.536 236.74 526.215 244.042 526.215 244.042C526.215 244.042 529.765 251.407 531.431 251.546C533.099 251.683 534.13 250.695 538.922 248.574C543.713 246.453 554.259 242.056 563.901 243.94C573.544 245.824 578.508 247.136 578.508 247.136L567.063 223.912L555.62 200.689C555.62 200.689 553.636 205.424 549.255 214.219Z" fill="#C0D6F6"/>
<path d="M582.382 240.928C583.15 243.663 582.559 245.737 580.384 246.809C578.209 247.88 576.178 247.163 574.503 244.81C574.503 244.81 572.274 242.902 563.726 225.555C555.177 208.208 555.022 205.278 555.022 205.278C554.664 202.436 554.845 200.469 557.02 199.398C559.196 198.326 560.898 199.033 562.901 201.396C562.901 201.396 565.812 204.69 573.677 220.651C581.544 236.612 582.382 240.928 582.382 240.928Z" fill="#3D75E4"/>
<path d="M572.917 221.026C578.701 232.763 581.282 243.317 581.282 243.317C581.282 243.317 574.485 234.841 568.701 223.104C562.917 211.367 560.336 200.814 560.336 200.814C560.336 200.814 567.134 209.289 572.917 221.026Z" fill="white"/>
<path d="M577.331 198.72C577.064 198.72 576.797 198.636 576.569 198.462C576.019 198.041 575.914 197.253 576.335 196.702L591.474 176.9C591.894 176.348 592.682 176.245 593.233 176.665C593.784 177.086 593.889 177.874 593.468 178.425L578.329 198.227C578.082 198.551 577.708 198.72 577.331 198.72Z" fill="#3D75E4"/>
<path d="M583.043 205.66C582.656 205.66 582.275 205.481 582.028 205.145C581.62 204.585 581.742 203.8 582.302 203.391L598.642 191.462C599.201 191.052 599.987 191.176 600.396 191.736C600.805 192.296 600.682 193.081 600.122 193.49L583.783 205.419C583.559 205.581 583.3 205.66 583.043 205.66Z" fill="#3D75E4"/>
<path d="M587.212 215.484C586.685 215.484 586.194 215.149 586.02 214.62C585.803 213.961 586.161 213.252 586.82 213.036L614.835 203.821C615.494 203.603 616.203 203.963 616.419 204.621C616.636 205.28 616.278 205.989 615.619 206.205L587.605 215.42C587.474 215.464 587.342 215.484 587.212 215.484Z" fill="#3D75E4"/>
<path d="M591.89 227.767C591.257 227.767 590.713 227.289 590.643 226.645C590.57 225.955 591.069 225.337 591.758 225.263L613.087 222.987C613.764 222.92 614.394 223.413 614.468 224.102C614.542 224.792 614.043 225.41 613.353 225.484L592.025 227.759C591.98 227.765 591.934 227.767 591.89 227.767Z" fill="#3D75E4"/>
</svg>
