<svg width="16" height="16" viewBox="0 0 16 16" fill="none" xmlns="http://www.w3.org/2000/svg">
<path fill-rule="evenodd" clip-rule="evenodd" d="M15.1807 12.9239C15.6308 13.1893 15.7758 13.7723 15.5024 14.2177C15.2357 14.652 14.6703 14.7926 14.2314 14.5337L8.50802 11.1586C8.1946 10.9738 7.80552 10.9738 7.49209 11.1586L1.76874 14.5337C1.32978 14.7926 0.764362 14.652 0.497738 14.2177C0.224319 13.7723 0.369273 13.1893 0.819418 12.9239L7.02209 9.26613C7.6238 8.91129 8.37631 8.91129 8.97802 9.26613L15.1807 12.9239Z" fill="#AB213A"/>
<path fill-rule="evenodd" clip-rule="evenodd" d="M15.1807 4.92388C15.6308 5.18933 15.7758 5.77235 15.5024 6.2177C15.2357 6.65199 14.6703 6.79256 14.2314 6.53371L8.50802 3.15861C8.19459 2.97379 7.80552 2.97379 7.49209 3.15861L1.76874 6.53371C1.32978 6.79256 0.764362 6.65199 0.497738 6.2177C0.224319 5.77235 0.369273 5.18933 0.819418 4.92388L7.02209 1.26613C7.6238 0.911291 8.37631 0.911291 8.97802 1.26613L15.1807 4.92388Z" fill="#AB213A"/>
</svg>
